<svg width="50" height="50" viewBox="0 0 50 50" fill="none" xmlns="http://www.w3.org/2000/svg">
    <g id="user">
        <path id="Path 4"
            d="M11.458 40.625C11.458 40.625 18.7497 37.5 20.833 35.4167C22.9163 33.3333 16.6663 33.3333 16.6663 22.9167C16.6663 12.5 24.9997 12.5 24.9997 12.5C24.9997 12.5 33.333 12.5 33.333 22.9167C33.333 33.3333 27.083 33.3333 29.1663 35.4167C31.2497 37.5 38.5413 40.625 38.5413 40.625"
            stroke="white" stroke-width="3" stroke-linecap="round" />
        <path id="Oval" fill-rule="evenodd" clip-rule="evenodd"
            d="M25.0003 45.8334C36.5063 45.8334 45.8337 36.506 45.8337 25.0001C45.8337 13.4941 36.5063 4.16675 25.0003 4.16675C13.4944 4.16675 4.16699 13.4941 4.16699 25.0001C4.16699 36.506 13.4944 45.8334 25.0003 45.8334Z"
            stroke="white" stroke-width="3" />
    </g>
</svg>
    