<svg width="80" height="80" viewBox="0 0 80 80" fill="none" xmlns="http://www.w3.org/2000/svg">
    <g id="chat">
        <g id="Combined Shape">
            <path fill-rule="evenodd" clip-rule="evenodd"
                d="M73.3332 36.6667C73.3332 51.3943 58.4093 63.3333 39.9998 63.3333C36.299 63.3333 32.739 62.8508 29.4128 61.9602L13.3332 70L15.5106 54.758C10.0208 50.0043 6.6665 43.6489 6.6665 36.6667C6.6665 21.9391 21.5903 10 39.9998 10C58.4093 10 73.3332 21.9391 73.3332 36.6667Z"
                fill="#FFFF33" />
            <path
                d="M29.4128 61.9602L29.5421 61.4772C29.4241 61.4456 29.2985 61.4583 29.1892 61.513L29.4128 61.9602ZM13.3332 70L12.8382 69.9293C12.8119 70.1134 12.8899 70.2969 13.0408 70.4056C13.1917 70.5144 13.3904 70.5304 13.5568 70.4472L13.3332 70ZM15.5106 54.758L16.0056 54.8287C16.0296 54.6603 15.9665 54.4913 15.8379 54.38L15.5106 54.758ZM39.9998 63.8333C58.5756 63.8333 73.8332 51.7688 73.8332 36.6667H72.8332C72.8332 51.0198 58.2431 62.8333 39.9998 62.8333V63.8333ZM29.2835 62.4432C32.6521 63.3452 36.2556 63.8333 39.9998 63.8333V62.8333C36.3424 62.8333 32.8259 62.3565 29.5421 61.4772L29.2835 62.4432ZM13.5568 70.4472L29.6364 62.4074L29.1892 61.513L13.1096 69.5528L13.5568 70.4472ZM15.0156 54.6873L12.8382 69.9293L13.8281 70.0707L16.0056 54.8287L15.0156 54.6873ZM6.1665 36.6667C6.1665 43.8181 9.60352 50.3044 15.1833 55.136L15.8379 54.38C10.4381 49.7043 7.1665 43.4796 7.1665 36.6667H6.1665ZM39.9998 9.5C21.4241 9.5 6.1665 21.5646 6.1665 36.6667H7.1665C7.1665 22.3136 21.7566 10.5 39.9998 10.5V9.5ZM73.8332 36.6667C73.8332 21.5646 58.5756 9.5 39.9998 9.5V10.5C58.2431 10.5 72.8332 22.3136 72.8332 36.6667H73.8332Z"
                fill="#FFFF33" />
        </g>
    </g>
</svg>
    