<?xml version="1.0" encoding="UTF-8"?>
<svg xmlns="http://www.w3.org/2000/svg" xmlns:xlink="http://www.w3.org/1999/xlink" width="96px" height="96px" viewBox="0 0 96 96" version="1.1">
<defs>
<linearGradient id="linear0" gradientUnits="userSpaceOnUse" x1="0.411" y1="0.0000436869" x2="0.5927" y2="0.0000436869" gradientTransform="matrix(338.21545,-344.123155,344.123155,338.21545,-121.876051,220.813248)">
<stop offset="0" style="stop-color:rgb(2.745098%,0.392157%,20.784314%);stop-opacity:1;"/>
<stop offset="1" style="stop-color:rgb(38.039216%,17.647059%,31.372549%);stop-opacity:1;"/>
</linearGradient>
</defs>
<g id="surface1">
<path style=" stroke:none;fill-rule:nonzero;fill:url(#linear0);" d="M 24.382812 12.960938 L 71.617188 12.960938 C 77.835938 12.960938 82.886719 18.007812 82.886719 24.230469 L 82.886719 71.769531 C 82.886719 77.992188 77.835938 83.039062 71.617188 83.039062 L 24.382812 83.039062 C 18.164062 83.039062 13.113281 77.992188 13.113281 71.769531 L 13.113281 24.230469 C 13.113281 18.007812 18.144531 12.960938 24.382812 12.960938 Z M 24.382812 12.960938 "/>
<path style=" stroke:none;fill-rule:nonzero;fill:rgb(100%,100%,100%);fill-opacity:1;" d="M 48.519531 43.125 C 50.304688 43.125 51.648438 42.738281 52.570312 41.953125 C 53.492188 41.183594 53.953125 40.03125 53.953125 38.515625 C 53.953125 37.019531 53.492188 35.886719 52.570312 35.117188 C 51.648438 34.328125 50.304688 33.925781 48.519531 33.925781 L 42.257812 33.925781 L 42.257812 43.125 L 48.519531 43.125 M 48.902344 62.113281 C 51.167969 62.113281 52.875 61.632812 54.007812 60.691406 C 55.160156 59.75 55.738281 58.308594 55.738281 56.390625 C 55.738281 54.507812 55.160156 53.105469 54.027344 52.167969 C 52.894531 51.226562 51.1875 50.746094 48.882812 50.746094 L 42.238281 50.746094 L 42.238281 62.113281 L 48.902344 62.113281 M 59.425781 46.503906 C 61.84375 47.195312 63.726562 48.480469 65.070312 50.363281 C 66.394531 52.242188 67.066406 54.546875 67.066406 57.273438 C 67.066406 61.460938 65.644531 64.589844 62.785156 66.644531 C 59.921875 68.699219 55.585938 69.734375 49.746094 69.734375 L 30.96875 69.734375 L 30.96875 26.324219 L 47.941406 26.324219 C 54.027344 26.324219 58.445312 27.226562 61.171875 29.050781 C 63.917969 30.875 65.28125 33.792969 65.28125 37.804688 C 65.28125 39.917969 64.78125 41.722656 63.78125 43.21875 C 62.785156 44.699219 61.324219 45.792969 59.425781 46.503906 "/>
</g>
</svg>
