<?xml version="1.0" encoding="UTF-8"?>
<svg xmlns="http://www.w3.org/2000/svg" xmlns:xlink="http://www.w3.org/1999/xlink" width="96px" height="96px" viewBox="0 0 96 96" version="1.1">
<defs>
<linearGradient id="linear0" gradientUnits="userSpaceOnUse" x1="0.1694" y1="-0.5315" x2="0.9462" y2="-0.5315" gradientTransform="matrix(0,-14.137901,-14.137901,0,14.441818,58.687315)">
<stop offset="0" style="stop-color:rgb(27.843137%,21.568627%,53.333333%);stop-opacity:1;"/>
<stop offset="0.3033" style="stop-color:rgb(27.843137%,21.568627%,53.333333%);stop-opacity:1;"/>
<stop offset="0.872" style="stop-color:rgb(17.254902%,13.333333%,33.333333%);stop-opacity:1;"/>
<stop offset="1" style="stop-color:rgb(17.254902%,13.333333%,33.333333%);stop-opacity:1;"/>
</linearGradient>
<linearGradient id="linear1" gradientUnits="userSpaceOnUse" x1="0.1727" y1="-0.5282" x2="0.9495" y2="-0.5282" gradientTransform="matrix(0,-14.137901,-14.137901,0,14.488435,58.734048)">
<stop offset="0" style="stop-color:rgb(27.843137%,21.568627%,53.333333%);stop-opacity:1;"/>
<stop offset="0.3033" style="stop-color:rgb(27.843137%,21.568627%,53.333333%);stop-opacity:1;"/>
<stop offset="0.872" style="stop-color:rgb(17.254902%,13.333333%,33.333333%);stop-opacity:1;"/>
<stop offset="1" style="stop-color:rgb(17.254902%,13.333333%,33.333333%);stop-opacity:1;"/>
</linearGradient>
<linearGradient id="linear2" gradientUnits="userSpaceOnUse" x1="0.1726" y1="-0.5283" x2="0.9494" y2="-0.5283" gradientTransform="matrix(0,-14.13721,-14.13721,0,14.486803,58.732032)">
<stop offset="0" style="stop-color:rgb(27.843137%,21.568627%,53.333333%);stop-opacity:1;"/>
<stop offset="0.3033" style="stop-color:rgb(27.843137%,21.568627%,53.333333%);stop-opacity:1;"/>
<stop offset="0.8631" style="stop-color:rgb(17.254902%,13.333333%,33.333333%);stop-opacity:1;"/>
<stop offset="1" style="stop-color:rgb(17.254902%,13.333333%,33.333333%);stop-opacity:1;"/>
</linearGradient>
</defs>
<g id="surface1">
<path style=" stroke:none;fill-rule:nonzero;fill:rgb(17.254902%,13.333333%,33.333333%);fill-opacity:1;" d="M 17.433594 50.113281 L 14.9375 50.113281 C 15.265625 51.246094 15.878906 52.261719 16.78125 53.164062 C 18.222656 54.605469 19.929688 55.316406 21.945312 55.316406 C 22.347656 55.316406 22.734375 55.277344 23.117188 55.21875 C 24.632812 54.988281 25.957031 54.296875 27.089844 53.164062 C 27.992188 52.261719 28.609375 51.246094 28.953125 50.113281 Z M 17.433594 50.113281 "/>
<path style=" stroke:none;fill-rule:nonzero;fill:rgb(17.254902%,13.333333%,33.333333%);fill-opacity:1;" d="M 16.070312 46.714844 L 14.765625 46.714844 C 14.726562 47 14.6875 47.289062 14.667969 47.597656 L 29.242188 47.597656 C 29.222656 47.289062 29.203125 47 29.144531 46.714844 "/>
<path style=" stroke:none;fill-rule:nonzero;fill:rgb(17.254902%,13.333333%,33.333333%);fill-opacity:1;" d="M 14.667969 48.402344 C 14.6875 48.710938 14.707031 49 14.765625 49.285156 L 29.164062 49.285156 C 29.222656 49 29.242188 48.710938 29.261719 48.402344 "/>
<path style=" stroke:none;fill-rule:nonzero;fill:rgb(17.254902%,13.333333%,33.333333%);fill-opacity:1;" d="M 28.972656 45.886719 C 28.644531 44.753906 28.011719 43.738281 27.109375 42.816406 C 25.976562 41.683594 24.652344 40.992188 23.136719 40.761719 C 22.753906 40.703125 22.367188 40.664062 21.945312 40.664062 C 19.929688 40.664062 18.203125 41.375 16.78125 42.796875 C 15.878906 43.699219 15.265625 44.71875 14.9375 45.867188 "/>
<path style=" stroke:none;fill-rule:nonzero;fill:rgb(96.862745%,58.039216%,11.764706%);fill-opacity:1;" d="M 14.226562 48 C 14.226562 44.140625 17.125 40.953125 20.890625 40.378906 C 20.792969 40.378906 20.699219 40.378906 20.601562 40.378906 C 16.378906 40.378906 12.960938 43.796875 12.960938 48 C 12.960938 52.203125 16.378906 55.621094 20.601562 55.621094 C 20.699219 55.621094 20.792969 55.621094 20.890625 55.621094 C 17.125 55.046875 14.226562 51.859375 14.226562 48 Z M 14.226562 48 "/>
<path style=" stroke:none;fill-rule:nonzero;fill:rgb(96.862745%,58.039216%,11.764706%);fill-opacity:1;" d="M 54.664062 39.761719 L 56.179688 39.761719 L 56.179688 41.683594 L 54.664062 41.683594 Z M 54.664062 39.761719 "/>
<path style=" stroke:none;fill-rule:nonzero;fill:rgb(17.254902%,13.333333%,33.333333%);fill-opacity:1;" d="M 41.972656 47.691406 L 41.972656 48.441406 L 34.980469 48.441406 C 35.039062 49.496094 35.367188 50.285156 35.921875 50.839844 C 36.480469 51.398438 37.265625 51.667969 38.285156 51.667969 C 38.859375 51.667969 39.4375 51.589844 39.972656 51.457031 C 40.53125 51.320312 41.070312 51.089844 41.605469 50.804688 L 41.605469 52.242188 C 41.070312 52.472656 40.492188 52.644531 39.9375 52.78125 C 39.359375 52.894531 38.785156 52.953125 38.1875 52.953125 C 36.710938 52.953125 35.539062 52.53125 34.675781 51.667969 C 33.8125 50.804688 33.390625 49.652344 33.390625 48.171875 C 33.390625 46.65625 33.792969 45.445312 34.617188 44.5625 C 35.441406 43.679688 36.539062 43.21875 37.921875 43.21875 C 39.167969 43.21875 40.148438 43.621094 40.875 44.429688 C 41.605469 45.234375 41.972656 46.308594 41.972656 47.691406 M 40.433594 47.25 C 40.414062 46.425781 40.1875 45.753906 39.742188 45.253906 C 39.28125 44.753906 38.6875 44.503906 37.9375 44.503906 C 37.09375 44.503906 36.402344 44.734375 35.902344 45.214844 C 35.386719 45.695312 35.097656 46.367188 35.019531 47.230469 Z M 40.433594 47.25 "/>
<path style=" stroke:none;fill-rule:nonzero;fill:rgb(17.254902%,13.333333%,33.333333%);fill-opacity:1;" d="M 49.84375 43.796875 L 49.84375 45.214844 C 49.421875 44.984375 48.980469 44.792969 48.558594 44.679688 C 48.113281 44.5625 47.691406 44.503906 47.25 44.503906 C 46.273438 44.503906 45.503906 44.8125 44.945312 45.445312 C 44.410156 46.078125 44.121094 46.945312 44.121094 48.078125 C 44.121094 49.210938 44.390625 50.09375 44.945312 50.707031 C 45.484375 51.339844 46.253906 51.648438 47.25 51.648438 C 47.691406 51.648438 48.132812 51.589844 48.558594 51.476562 C 49 51.359375 49.421875 51.1875 49.84375 50.9375 L 49.84375 52.339844 C 49.421875 52.53125 48.980469 52.683594 48.519531 52.78125 C 48.058594 52.875 47.578125 52.933594 47.058594 52.933594 C 45.65625 52.933594 44.5625 52.492188 43.738281 51.628906 C 42.910156 50.746094 42.507812 49.574219 42.507812 48.078125 C 42.507812 46.558594 42.929688 45.390625 43.757812 44.503906 C 44.582031 43.640625 45.714844 43.199219 47.175781 43.199219 C 47.636719 43.199219 48.097656 43.257812 48.539062 43.355469 C 49 43.46875 49.441406 43.601562 49.84375 43.796875 "/>
<path style=" stroke:none;fill-rule:nonzero;fill:rgb(17.254902%,13.333333%,33.333333%);fill-opacity:1;" d="M 51.226562 39.839844 L 52.742188 39.839844 L 52.742188 52.703125 L 51.226562 52.703125 Z M 51.226562 39.839844 "/>
<path style=" stroke:none;fill-rule:nonzero;fill:rgb(17.254902%,13.333333%,33.333333%);fill-opacity:1;" d="M 54.664062 43.449219 L 56.179688 43.449219 L 56.179688 52.703125 L 54.664062 52.703125 Z M 54.664062 43.449219 "/>
<path style=" stroke:none;fill-rule:nonzero;fill:rgb(17.254902%,13.333333%,33.333333%);fill-opacity:1;" d="M 59.558594 51.320312 L 59.558594 56.238281 L 58.023438 56.238281 L 58.023438 43.449219 L 59.558594 43.449219 L 59.558594 44.851562 C 59.886719 44.292969 60.289062 43.890625 60.769531 43.621094 C 61.246094 43.355469 61.84375 43.21875 62.515625 43.21875 C 63.648438 43.21875 64.550781 43.660156 65.261719 44.5625 C 65.972656 45.464844 66.316406 46.636719 66.316406 48.078125 C 66.316406 49.535156 65.972656 50.707031 65.261719 51.589844 C 64.550781 52.472656 63.648438 52.933594 62.515625 52.933594 C 61.84375 52.933594 61.246094 52.800781 60.769531 52.53125 C 60.289062 52.28125 59.886719 51.878906 59.558594 51.320312 M 64.742188 48.078125 C 64.742188 46.964844 64.511719 46.078125 64.050781 45.445312 C 63.589844 44.8125 62.957031 44.488281 62.152344 44.488281 C 61.34375 44.488281 60.710938 44.8125 60.25 45.445312 C 59.789062 46.078125 59.558594 46.964844 59.558594 48.078125 C 59.558594 49.191406 59.789062 50.074219 60.25 50.707031 C 60.710938 51.339844 61.34375 51.667969 62.152344 51.667969 C 62.957031 51.667969 63.589844 51.339844 64.050781 50.707031 C 64.511719 50.074219 64.742188 49.210938 64.742188 48.078125 "/>
<path style=" stroke:none;fill-rule:nonzero;fill:rgb(17.254902%,13.333333%,33.333333%);fill-opacity:1;" d="M 73.476562 43.71875 L 73.476562 45.160156 C 73.054688 44.945312 72.59375 44.773438 72.132812 44.660156 C 71.671875 44.542969 71.195312 44.488281 70.695312 44.488281 C 69.945312 44.488281 69.371094 44.601562 69.003906 44.832031 C 68.621094 45.0625 68.449219 45.40625 68.449219 45.867188 C 68.449219 46.214844 68.582031 46.503906 68.851562 46.695312 C 69.121094 46.886719 69.65625 47.078125 70.484375 47.269531 L 71 47.386719 C 72.078125 47.617188 72.84375 47.941406 73.304688 48.363281 C 73.765625 48.789062 73.996094 49.382812 73.996094 50.132812 C 73.996094 50.996094 73.652344 51.667969 72.980469 52.167969 C 72.308594 52.664062 71.367188 52.914062 70.175781 52.914062 C 69.675781 52.914062 69.160156 52.859375 68.621094 52.761719 C 68.082031 52.664062 67.527344 52.511719 66.929688 52.320312 L 66.929688 50.746094 C 67.488281 51.035156 68.042969 51.265625 68.601562 51.398438 C 69.140625 51.550781 69.695312 51.609375 70.214844 51.609375 C 70.925781 51.609375 71.480469 51.496094 71.867188 51.246094 C 72.25 50.996094 72.441406 50.648438 72.441406 50.207031 C 72.441406 49.785156 72.308594 49.476562 72.019531 49.246094 C 71.730469 49.035156 71.136719 48.804688 70.195312 48.613281 L 69.65625 48.5 C 68.71875 48.308594 68.027344 48 67.621094 47.578125 C 67.199219 47.175781 66.988281 46.597656 66.988281 45.886719 C 66.988281 45.023438 67.296875 44.351562 67.910156 43.871094 C 68.523438 43.390625 69.40625 43.160156 70.539062 43.160156 C 71.097656 43.160156 71.636719 43.199219 72.132812 43.277344 C 72.59375 43.429688 73.054688 43.566406 73.476562 43.71875 "/>
<path style=" stroke:none;fill-rule:nonzero;fill:rgb(17.254902%,13.333333%,33.333333%);fill-opacity:1;" d="M 83.039062 47.691406 L 83.039062 48.441406 L 76.050781 48.441406 C 76.109375 49.496094 76.433594 50.285156 76.992188 50.839844 C 77.546875 51.398438 78.335938 51.667969 79.355469 51.667969 C 79.929688 51.667969 80.503906 51.589844 81.042969 51.457031 C 81.601562 51.320312 82.136719 51.089844 82.675781 50.804688 L 82.675781 52.242188 C 82.136719 52.472656 81.5625 52.644531 81.003906 52.78125 C 80.429688 52.894531 79.851562 52.953125 79.257812 52.953125 C 77.777344 52.953125 76.609375 52.53125 75.742188 51.667969 C 74.878906 50.804688 74.457031 49.652344 74.457031 48.171875 C 74.457031 46.65625 74.859375 45.445312 75.6875 44.5625 C 76.511719 43.679688 77.605469 43.21875 78.988281 43.21875 C 80.238281 43.21875 81.214844 43.621094 81.945312 44.429688 C 82.675781 45.234375 83.039062 46.308594 83.039062 47.691406 M 81.523438 47.25 C 81.503906 46.425781 81.273438 45.753906 80.832031 45.253906 C 80.371094 44.753906 79.777344 44.503906 79.027344 44.503906 C 78.183594 44.503906 77.492188 44.734375 76.992188 45.214844 C 76.472656 45.695312 76.1875 46.367188 76.109375 47.230469 Z M 81.523438 47.25 "/>
<path style=" stroke:none;fill-rule:nonzero;fill:url(#linear0);" d="M 26.917969 47.597656 C 26.898438 47.289062 26.839844 47 26.765625 46.714844 L 17.144531 46.714844 C 17.070312 47 17.011719 47.289062 16.992188 47.597656 Z M 26.917969 47.597656 "/>
<path style=" stroke:none;fill-rule:nonzero;fill:url(#linear1);" d="M 26.917969 48.402344 L 16.992188 48.402344 C 17.011719 48.710938 17.070312 49 17.144531 49.285156 L 26.765625 49.285156 C 26.839844 49 26.898438 48.710938 26.917969 48.402344 Z M 26.917969 48.402344 "/>
<path style=" stroke:none;fill-rule:nonzero;fill:url(#linear2);" d="M 21.964844 52.972656 C 23.960938 52.972656 25.691406 51.800781 26.476562 50.09375 L 17.453125 50.09375 C 18.238281 51.800781 19.949219 52.972656 21.964844 52.972656 Z M 21.964844 52.972656 "/>
<path style=" stroke:none;fill-rule:nonzero;fill:rgb(100%,100%,100%);fill-opacity:1;" d="M 16.261719 48.402344 L 29.242188 48.402344 C 29.242188 48.269531 29.261719 48.132812 29.261719 48.019531 C 29.261719 47.886719 29.261719 47.730469 29.242188 47.597656 L 14.667969 47.597656 C 14.667969 47.730469 14.648438 47.886719 14.648438 48.019531 C 14.648438 48.152344 14.648438 48.289062 14.667969 48.402344 Z M 16.261719 48.402344 "/>
<path style=" stroke:none;fill-rule:nonzero;fill:rgb(100%,100%,100%);fill-opacity:1;" d="M 17.414062 45.886719 L 14.9375 45.886719 C 14.859375 46.15625 14.804688 46.425781 14.746094 46.714844 L 29.070312 46.714844 C 29.011719 46.445312 28.953125 46.15625 28.875 45.886719 "/>
<path style=" stroke:none;fill-rule:nonzero;fill:rgb(100%,100%,100%);fill-opacity:1;" d="M 28.167969 49.285156 L 14.765625 49.285156 C 14.824219 49.554688 14.859375 49.84375 14.957031 50.113281 L 28.933594 50.113281 C 29.011719 49.84375 29.070312 49.574219 29.125 49.285156 Z M 28.167969 49.285156 "/>
</g>
</svg>
