<?xml version="1.0" encoding="UTF-8"?>
<svg xmlns="http://www.w3.org/2000/svg" xmlns:xlink="http://www.w3.org/1999/xlink" width="96px" height="96px" viewBox="0 0 96 96" version="1.1">
<g id="surface1">
<path style=" stroke:none;fill-rule:nonzero;fill:rgb(21.176471%,15.294118%,0.392157%);fill-opacity:1;" d="M 54.949219 43.335938 C 53.414062 43.335938 52.261719 44.082031 52.261719 45.90625 C 52.261719 47.269531 53.011719 48.230469 54.855469 48.230469 C 56.410156 48.230469 57.484375 47.308594 57.484375 45.847656 C 57.503906 44.199219 56.542969 43.335938 54.949219 43.335938 Z M 51.878906 56.140625 C 51.511719 56.582031 51.148438 57.0625 51.148438 57.621094 C 51.148438 58.734375 52.570312 59.078125 54.527344 59.078125 C 56.140625 59.078125 58.347656 58.964844 58.347656 57.464844 C 58.347656 56.5625 57.292969 56.503906 55.949219 56.429688 Z M 60.152344 43.410156 C 60.652344 44.042969 61.191406 44.945312 61.191406 46.234375 C 61.191406 49.324219 58.753906 51.148438 55.238281 51.148438 C 54.335938 51.148438 53.53125 51.035156 53.03125 50.898438 L 52.109375 52.378906 L 54.855469 52.550781 C 59.691406 52.859375 62.535156 52.992188 62.535156 56.71875 C 62.535156 59.921875 59.710938 61.746094 54.855469 61.746094 C 49.804688 61.746094 47.867188 60.460938 47.867188 58.253906 C 47.867188 57.003906 48.421875 56.332031 49.402344 55.410156 C 48.480469 55.027344 48.171875 54.316406 48.171875 53.566406 C 48.171875 52.953125 48.480469 52.398438 48.980469 51.859375 C 49.476562 51.320312 50.035156 50.804688 50.707031 50.1875 C 49.34375 49.515625 48.308594 48.058594 48.308594 46.003906 C 48.308594 42.796875 50.4375 40.589844 54.699219 40.589844 C 55.910156 40.589844 56.621094 40.703125 57.273438 40.875 L 62.726562 40.875 L 62.726562 43.257812 L 60.152344 43.410156 "/>
<path style=" stroke:none;fill-rule:nonzero;fill:rgb(21.176471%,15.294118%,0.392157%);fill-opacity:1;" d="M 67.640625 38.34375 C 66.046875 38.34375 65.125 37.421875 65.125 35.828125 C 65.125 34.234375 66.046875 33.371094 67.640625 33.371094 C 69.253906 33.371094 70.175781 34.234375 70.175781 35.828125 C 70.175781 37.421875 69.253906 38.34375 67.640625 38.34375 Z M 64.03125 55.125 L 64.03125 52.914062 L 65.453125 52.722656 C 65.835938 52.664062 65.894531 52.589844 65.894531 52.167969 L 65.894531 43.949219 C 65.894531 43.640625 65.816406 43.449219 65.53125 43.355469 L 64.011719 42.816406 L 64.320312 40.550781 L 70.097656 40.550781 L 70.097656 52.148438 C 70.097656 52.589844 70.117188 52.644531 70.539062 52.703125 L 71.960938 52.894531 L 71.960938 55.105469 L 64.03125 55.125 "/>
<path style=" stroke:none;fill-rule:nonzero;fill:rgb(21.176471%,15.294118%,0.392157%);fill-opacity:1;" d="M 83.039062 54.027344 C 81.832031 54.625 80.082031 55.140625 78.488281 55.140625 C 75.167969 55.140625 73.902344 53.796875 73.902344 50.648438 L 73.902344 43.335938 C 73.902344 43.160156 73.902344 43.046875 73.671875 43.046875 L 71.710938 43.046875 L 71.710938 40.570312 C 74.167969 40.28125 75.148438 39.054688 75.457031 36.019531 L 78.105469 36.019531 L 78.105469 39.992188 C 78.105469 40.1875 78.105469 40.28125 78.335938 40.28125 L 82.273438 40.28125 L 82.273438 43.066406 L 78.105469 43.066406 L 78.105469 49.726562 C 78.105469 51.378906 78.488281 52.011719 80.007812 52.011719 C 80.792969 52.011719 81.601562 51.820312 82.273438 51.570312 L 83.039062 54.027344 "/>
<path style=" stroke:none;fill-rule:nonzero;fill:rgb(94.117647%,23.529412%,18.039216%);fill-opacity:1;" d="M 41.664062 46.714844 L 28.894531 33.945312 C 28.167969 33.214844 26.976562 33.214844 26.226562 33.945312 L 23.578125 36.59375 L 26.9375 39.957031 C 27.726562 39.6875 28.609375 39.859375 29.242188 40.492188 C 29.875 41.125 30.046875 42.027344 29.777344 42.816406 L 33.023438 46.0625 C 33.8125 45.792969 34.714844 45.964844 35.347656 46.597656 C 36.230469 47.480469 36.230469 48.882812 35.347656 49.765625 C 34.464844 50.648438 33.0625 50.648438 32.179688 49.765625 C 31.527344 49.113281 31.355469 48.132812 31.699219 47.328125 L 28.683594 44.3125 L 28.683594 52.261719 C 28.894531 52.378906 29.105469 52.511719 29.28125 52.683594 C 30.164062 53.566406 30.164062 54.96875 29.28125 55.851562 C 28.398438 56.734375 26.976562 56.734375 26.113281 55.851562 C 25.230469 54.96875 25.230469 53.546875 26.113281 52.683594 C 26.324219 52.472656 26.574219 52.300781 26.839844 52.203125 L 26.839844 44.179688 C 26.574219 44.0625 26.324219 43.910156 26.113281 43.699219 C 25.441406 43.027344 25.285156 42.066406 25.632812 41.242188 L 22.273438 37.902344 L 13.515625 46.65625 C 12.789062 47.386719 12.789062 48.574219 13.515625 49.324219 L 26.285156 62.09375 C 27.015625 62.824219 28.203125 62.824219 28.953125 62.09375 L 41.664062 49.382812 C 42.394531 48.632812 42.394531 47.441406 41.664062 46.714844 "/>
</g>
</svg>
