<?xml version="1.0" encoding="UTF-8"?>
<svg xmlns="http://www.w3.org/2000/svg" xmlns:xlink="http://www.w3.org/1999/xlink" width="96px" height="96px" viewBox="0 0 96 96" version="1.1">
<g id="surface1">
<path style=" stroke:none;fill-rule:nonzero;fill:rgb(89.411765%,30.196078%,14.901961%);fill-opacity:1;" d="M 27.972656 77.011719 L 23.519531 27.015625 L 72.480469 27.015625 L 68.027344 76.992188 L 47.960938 82.558594 Z M 27.972656 77.011719 "/>
<path style=" stroke:none;fill-rule:nonzero;fill:rgb(94.509804%,39.607843%,16.078431%);fill-opacity:1;" d="M 48 78.316406 L 64.203125 73.824219 L 68.027344 31.105469 L 48 31.105469 Z M 48 78.316406 "/>
<path style=" stroke:none;fill-rule:nonzero;fill:rgb(92.156863%,92.156863%,92.156863%);fill-opacity:1;" d="M 48 49.652344 L 39.878906 49.652344 L 39.320312 43.371094 L 48 43.371094 L 48 37.246094 L 32.621094 37.246094 L 32.773438 38.878906 L 34.273438 55.777344 L 48 55.777344 Z M 48 49.652344 "/>
<path style=" stroke:none;fill-rule:nonzero;fill:rgb(92.156863%,92.156863%,92.156863%);fill-opacity:1;" d="M 48 65.566406 L 47.980469 65.585938 L 41.144531 63.726562 L 40.703125 58.847656 L 34.558594 58.847656 L 35.40625 68.46875 L 47.980469 71.960938 L 48 71.941406 Z M 48 65.566406 "/>
<path style=" stroke:none;fill-rule:nonzero;fill:rgb(0%,0%,0%);fill-opacity:1;" d="M 28.070312 13.441406 L 31.179688 13.441406 L 31.179688 16.511719 L 34.023438 16.511719 L 34.023438 13.441406 L 37.132812 13.441406 L 37.132812 22.753906 L 34.023438 22.753906 L 34.023438 19.621094 L 31.179688 19.621094 L 31.179688 22.753906 L 28.070312 22.753906 Z M 28.070312 13.441406 "/>
<path style=" stroke:none;fill-rule:nonzero;fill:rgb(0%,0%,0%);fill-opacity:1;" d="M 41.242188 16.53125 L 38.496094 16.53125 L 38.496094 13.441406 L 47.097656 13.441406 L 47.097656 16.53125 L 44.351562 16.53125 L 44.351562 22.753906 L 41.242188 22.753906 Z M 41.242188 16.53125 "/>
<path style=" stroke:none;fill-rule:nonzero;fill:rgb(0%,0%,0%);fill-opacity:1;" d="M 48.480469 13.441406 L 51.726562 13.441406 L 53.722656 16.722656 L 55.71875 13.441406 L 58.964844 13.441406 L 58.964844 22.753906 L 55.871094 22.753906 L 55.871094 18.144531 L 53.722656 21.464844 L 53.664062 21.464844 L 51.511719 18.144531 L 51.511719 22.769531 L 48.460938 22.769531 L 48.460938 13.441406 Z M 48.480469 13.441406 "/>
<path style=" stroke:none;fill-rule:nonzero;fill:rgb(0%,0%,0%);fill-opacity:1;" d="M 60.519531 13.441406 L 63.628906 13.441406 L 63.628906 19.679688 L 68.007812 19.679688 L 68.007812 22.753906 L 60.519531 22.753906 Z M 60.519531 13.441406 "/>
<path style=" stroke:none;fill-rule:nonzero;fill:rgb(100%,100%,100%);fill-opacity:1;" d="M 47.980469 49.652344 L 47.980469 55.777344 L 55.527344 55.777344 L 54.816406 63.726562 L 47.980469 65.566406 L 47.980469 71.960938 L 60.539062 68.46875 L 60.632812 67.429688 L 62.074219 51.300781 L 62.226562 49.652344 Z M 47.980469 49.652344 "/>
<path style=" stroke:none;fill-rule:nonzero;fill:rgb(100%,100%,100%);fill-opacity:1;" d="M 47.980469 37.246094 L 47.980469 43.371094 L 62.785156 43.371094 L 62.917969 41.992188 L 63.1875 38.878906 L 63.339844 37.246094 Z M 47.980469 37.246094 "/>
</g>
</svg>
