<?xml version="1.0" encoding="UTF-8"?>
<svg xmlns="http://www.w3.org/2000/svg" xmlns:xlink="http://www.w3.org/1999/xlink" width="96px" height="96px" viewBox="0 0 96 96" version="1.1">
<defs>
<linearGradient id="linear0" gradientUnits="userSpaceOnUse" x1="-0.4487" y1="0.0737837" x2="0.9771" y2="0.0737837" gradientTransform="matrix(22.84032,0,0,20.311027,23.974637,51.593126)">
<stop offset="0" style="stop-color:rgb(97.647059%,47.843137%,7.058824%);stop-opacity:1;"/>
<stop offset="0.26" style="stop-color:rgb(97.647059%,47.843137%,7.058824%);stop-opacity:1;"/>
<stop offset="0.46" style="stop-color:rgb(69.019608%,48.235294%,34.509804%);stop-opacity:1;"/>
<stop offset="0.72" style="stop-color:rgb(34.117647%,48.235294%,68.235294%);stop-opacity:1;"/>
<stop offset="0.91" style="stop-color:rgb(11.764706%,48.627451%,89.803922%);stop-opacity:1;"/>
<stop offset="1" style="stop-color:rgb(3.137255%,48.627451%,98.039216%);stop-opacity:1;"/>
</linearGradient>
<linearGradient id="linear1" gradientUnits="userSpaceOnUse" x1="-0.0808921" y1="-0.0225224" x2="1.3449" y2="-0.0225224" gradientTransform="matrix(37.67808,20.84352,-13.432493,58.465978,41.482022,40.883251)">
<stop offset="0" style="stop-color:rgb(97.647059%,47.843137%,7.058824%);stop-opacity:1;"/>
<stop offset="0.07" style="stop-color:rgb(79.607843%,47.843137%,24.313725%);stop-opacity:1;"/>
<stop offset="0.15" style="stop-color:rgb(61.960784%,48.235294%,41.568627%);stop-opacity:1;"/>
<stop offset="0.24" style="stop-color:rgb(45.882353%,48.235294%,56.862745%);stop-opacity:1;"/>
<stop offset="0.33" style="stop-color:rgb(32.54902%,48.235294%,69.411765%);stop-opacity:1;"/>
<stop offset="0.43" style="stop-color:rgb(21.960784%,48.627451%,80%);stop-opacity:1;"/>
<stop offset="0.54" style="stop-color:rgb(13.72549%,48.627451%,87.843137%);stop-opacity:1;"/>
<stop offset="0.66" style="stop-color:rgb(7.843137%,48.627451%,93.72549%);stop-opacity:1;"/>
<stop offset="0.79" style="stop-color:rgb(4.313725%,48.627451%,96.862745%);stop-opacity:1;"/>
<stop offset="1" style="stop-color:rgb(3.137255%,48.627451%,98.039216%);stop-opacity:1;"/>
</linearGradient>
<linearGradient id="linear2" gradientUnits="userSpaceOnUse" x1="-0.2009" y1="0.2771" x2="1.2248" y2="0.2771" gradientTransform="matrix(-10.4832,-31.34208,22.765094,-14.432851,67.839226,53.605747)">
<stop offset="0" style="stop-color:rgb(99.607843%,19.215686%,36.470588%);stop-opacity:1;"/>
<stop offset="0.08" style="stop-color:rgb(79.607843%,25.490196%,49.411765%);stop-opacity:1;"/>
<stop offset="0.16" style="stop-color:rgb(61.960784%,30.588235%,60.784314%);stop-opacity:1;"/>
<stop offset="0.25" style="stop-color:rgb(45.882353%,35.686275%,70.588235%);stop-opacity:1;"/>
<stop offset="0.34" style="stop-color:rgb(32.54902%,39.607843%,79.215686%);stop-opacity:1;"/>
<stop offset="0.44" style="stop-color:rgb(21.960784%,42.745098%,85.882353%);stop-opacity:1;"/>
<stop offset="0.54" style="stop-color:rgb(13.72549%,45.490196%,91.372549%);stop-opacity:1;"/>
<stop offset="0.66" style="stop-color:rgb(7.843137%,47.058824%,95.294118%);stop-opacity:1;"/>
<stop offset="0.79" style="stop-color:rgb(4.313725%,48.235294%,97.254902%);stop-opacity:1;"/>
<stop offset="1" style="stop-color:rgb(3.137255%,48.627451%,98.039216%);stop-opacity:1;"/>
</linearGradient>
<linearGradient id="linear3" gradientUnits="userSpaceOnUse" x1="-0.1538" y1="0.0609476" x2="1.272" y2="0.0609476" gradientTransform="matrix(31.45728,52.03968,-40.947878,39.978298,31.044864,34.983053)">
<stop offset="0" style="stop-color:rgb(99.607843%,19.215686%,36.470588%);stop-opacity:1;"/>
<stop offset="0.04" style="stop-color:rgb(96.470588%,20.392157%,38.431373%);stop-opacity:1;"/>
<stop offset="0.1" style="stop-color:rgb(87.45098%,22.745098%,44.313725%);stop-opacity:1;"/>
<stop offset="0.17" style="stop-color:rgb(76.078431%,26.27451%,51.372549%);stop-opacity:1;"/>
<stop offset="0.29" style="stop-color:rgb(67.843137%,29.019608%,56.862745%);stop-opacity:1;"/>
<stop offset="0.55" style="stop-color:rgb(45.882353%,35.686275%,70.588235%);stop-opacity:1;"/>
<stop offset="0.92" style="stop-color:rgb(11.372549%,46.27451%,92.941176%);stop-opacity:1;"/>
<stop offset="1" style="stop-color:rgb(3.137255%,48.627451%,98.039216%);stop-opacity:1;"/>
</linearGradient>
</defs>
<g id="surface1">
<path style=" stroke:none;fill-rule:nonzero;fill:url(#linear0);" d="M 30.699219 67.601562 L 13.726562 54.238281 L 22.15625 38.59375 L 46.347656 48 Z M 30.699219 67.601562 "/>
<path style=" stroke:none;fill-rule:nonzero;fill:url(#linear1);" d="M 83.039062 31.679688 L 81.734375 72.191406 L 54.796875 83.039062 L 38.59375 72.539062 L 62.226562 48 L 51.9375 25.230469 L 61.246094 14.054688 Z M 83.039062 31.679688 "/>
<path style=" stroke:none;fill-rule:nonzero;fill:url(#linear2);" d="M 83.039062 31.679688 L 61.691406 56.871094 L 51.9375 25.230469 L 61.246094 14.054688 Z M 83.039062 31.679688 "/>
<path style=" stroke:none;fill-rule:nonzero;fill:url(#linear3);" d="M 46.695312 71.097656 L 18.664062 81.292969 L 23.136719 65.53125 L 28.953125 46.023438 L 12.960938 40.664062 L 23.136719 12.960938 L 45.042969 15.589844 L 66.71875 40.339844 Z M 46.695312 71.097656 "/>
<path style=" stroke:none;fill-rule:nonzero;fill:rgb(0%,0%,0%);fill-opacity:1;" d="M 26.09375 26.09375 L 69.886719 26.09375 L 69.886719 69.886719 L 26.09375 69.886719 Z M 26.09375 26.09375 "/>
<path style=" stroke:none;fill-rule:nonzero;fill:rgb(100%,100%,100%);fill-opacity:1;" d="M 30.257812 61.691406 L 46.675781 61.691406 L 46.675781 64.433594 L 30.257812 64.433594 Z M 41.972656 35.078125 L 41.972656 31.796875 L 32.984375 31.796875 L 32.984375 35.078125 L 35.519531 35.078125 L 35.519531 46.578125 L 33.003906 46.578125 L 33.003906 49.976562 L 41.992188 49.976562 L 41.992188 46.578125 L 39.476562 46.578125 L 39.476562 35.078125 Z M 50.746094 50.1875 C 49.496094 50.246094 48.25 49.976562 47.136719 49.421875 C 46.214844 48.921875 45.40625 48.25 44.734375 47.441406 L 47.25 44.601562 C 47.710938 45.101562 48.230469 45.542969 48.789062 45.90625 C 49.324219 46.214844 49.921875 46.367188 50.535156 46.347656 C 51.207031 46.40625 51.859375 46.117188 52.28125 45.582031 C 52.78125 44.929688 53.03125 44.101562 52.933594 43.277344 L 52.933594 31.566406 L 56.984375 31.566406 L 56.984375 43.390625 C 57.023438 44.351562 56.871094 45.332031 56.542969 46.234375 C 56.257812 47.15625 55.71875 47.980469 55.007812 48.632812 C 53.761719 49.574219 52.28125 50.113281 50.746094 50.1875 Z M 50.746094 50.1875 "/>
</g>
</svg>
