<?xml version="1.0" encoding="UTF-8"?>
<svg xmlns="http://www.w3.org/2000/svg" xmlns:xlink="http://www.w3.org/1999/xlink" width="96px" height="96px" viewBox="0 0 96 96" version="1.1">
<g id="surface1">
<path style=" stroke:none;fill-rule:nonzero;fill:rgb(0%,45.490196%,74.117647%);fill-opacity:1;" d="M 41.53125 50.167969 C 41.53125 50.167969 39.667969 51.246094 42.855469 51.609375 C 46.714844 52.050781 48.691406 51.992188 52.933594 51.1875 C 52.933594 51.1875 54.046875 51.898438 55.621094 52.492188 C 46.078125 56.582031 34.042969 52.261719 41.53125 50.167969 Z M 41.53125 50.167969 "/>
<path style=" stroke:none;fill-rule:nonzero;fill:rgb(0%,45.490196%,74.117647%);fill-opacity:1;" d="M 40.359375 44.832031 C 40.359375 44.832031 38.265625 46.386719 41.453125 46.714844 C 45.582031 47.136719 48.824219 47.175781 54.46875 46.078125 C 54.46875 46.078125 55.257812 46.867188 56.46875 47.308594 C 44.964844 50.667969 32.121094 47.558594 40.359375 44.832031 Z M 40.359375 44.832031 "/>
<path style=" stroke:none;fill-rule:nonzero;fill:rgb(91.764706%,17.647059%,18.039216%);fill-opacity:1;" d="M 50.1875 35.769531 C 52.53125 38.476562 49.574219 40.914062 49.574219 40.914062 C 49.574219 40.914062 55.546875 37.84375 52.800781 33.984375 C 50.246094 30.394531 48.269531 28.609375 58.90625 22.445312 C 58.90625 22.425781 42.222656 26.59375 50.1875 35.769531 Z M 50.1875 35.769531 "/>
<path style=" stroke:none;fill-rule:nonzero;fill:rgb(0%,45.490196%,74.117647%);fill-opacity:1;" d="M 62.804688 54.105469 C 62.804688 54.105469 64.1875 55.238281 61.285156 56.121094 C 55.777344 57.792969 38.363281 58.292969 33.542969 56.179688 C 31.8125 55.429688 35.058594 54.375 36.097656 54.144531 C 37.171875 53.914062 37.765625 53.953125 37.765625 53.953125 C 35.828125 52.589844 25.265625 56.621094 32.410156 57.792969 C 51.839844 60.960938 67.851562 56.390625 62.804688 54.105469 Z M 62.804688 54.105469 "/>
<path style=" stroke:none;fill-rule:nonzero;fill:rgb(0%,45.490196%,74.117647%);fill-opacity:1;" d="M 42.433594 39.300781 C 42.433594 39.300781 33.582031 41.414062 39.300781 42.164062 C 41.722656 42.488281 46.523438 42.414062 51.015625 42.027344 C 54.679688 41.722656 58.367188 41.070312 58.367188 41.070312 C 58.367188 41.070312 57.082031 41.625 56.140625 42.257812 C 47.15625 44.621094 29.777344 43.527344 34.769531 41.105469 C 38.996094 39.070312 42.433594 39.300781 42.433594 39.300781 Z M 42.433594 39.300781 "/>
<path style=" stroke:none;fill-rule:nonzero;fill:rgb(0%,45.490196%,74.117647%);fill-opacity:1;" d="M 58.308594 48.171875 C 67.449219 43.429688 63.226562 38.859375 60.269531 39.476562 C 59.539062 39.628906 59.230469 39.761719 59.230469 39.761719 C 59.230469 39.761719 59.5 39.339844 60.019531 39.167969 C 65.855469 37.113281 70.347656 45.214844 58.136719 48.421875 C 58.136719 48.421875 58.273438 48.289062 58.308594 48.171875 Z M 58.308594 48.171875 "/>
<path style=" stroke:none;fill-rule:nonzero;fill:rgb(91.764706%,17.647059%,18.039216%);fill-opacity:1;" d="M 52.800781 12.480469 C 52.800781 12.480469 57.867188 17.546875 48 25.324219 C 40.089844 31.566406 46.195312 35.136719 48 39.207031 C 43.371094 35.039062 39.992188 31.371094 42.257812 27.957031 C 45.601562 22.964844 54.835938 20.523438 52.800781 12.480469 Z M 52.800781 12.480469 "/>
<path style=" stroke:none;fill-rule:nonzero;fill:rgb(0%,45.490196%,74.117647%);fill-opacity:1;" d="M 43.316406 61.054688 C 52.089844 61.613281 65.566406 60.75 65.894531 56.582031 C 65.894531 56.582031 65.28125 58.15625 58.636719 59.40625 C 51.148438 60.804688 41.914062 60.652344 36.421875 59.75 C 36.441406 59.75 37.554688 60.691406 43.316406 61.054688 Z M 43.316406 61.054688 "/>
<path style=" stroke:none;fill-rule:nonzero;fill:rgb(91.764706%,17.647059%,18.039216%);fill-opacity:1;" d="M 65.492188 68.503906 L 65.222656 68.503906 L 65.222656 68.351562 L 65.933594 68.351562 L 65.933594 68.503906 L 65.664062 68.503906 L 65.664062 69.253906 L 65.472656 69.253906 Z M 66.929688 68.542969 L 66.664062 69.253906 L 66.546875 69.253906 L 66.277344 68.542969 L 66.277344 69.253906 L 66.105469 69.253906 L 66.105469 68.351562 L 66.355469 68.351562 L 66.605469 68.984375 L 66.855469 68.351562 L 67.105469 68.351562 L 67.105469 69.253906 L 66.929688 69.253906 Z M 66.929688 68.542969 "/>
<path style=" stroke:none;fill-rule:nonzero;fill:rgb(91.764706%,17.647059%,18.039216%);fill-opacity:1;" d="M 41.894531 76.914062 C 41.070312 77.625 40.1875 78.027344 39.398438 78.027344 C 38.285156 78.027344 37.671875 77.355469 37.671875 76.28125 C 37.671875 75.109375 38.324219 74.265625 40.914062 74.265625 L 41.875 74.265625 L 41.875 76.914062 Z M 44.179688 79.488281 L 44.179688 71.519531 C 44.179688 69.484375 43.007812 68.140625 40.222656 68.140625 C 38.59375 68.140625 37.152344 68.542969 35.980469 69.0625 L 36.308594 70.484375 C 37.230469 70.136719 38.417969 69.832031 39.570312 69.832031 C 41.183594 69.832031 41.875 70.484375 41.875 71.828125 L 41.875 72.84375 L 41.089844 72.84375 C 37.171875 72.84375 35.40625 74.363281 35.40625 76.644531 C 35.40625 78.625 36.574219 79.738281 38.765625 79.738281 C 40.167969 79.738281 41.222656 79.160156 42.222656 78.296875 L 42.394531 79.507812 L 44.179688 79.507812 Z M 44.179688 79.488281 "/>
<path style=" stroke:none;fill-rule:nonzero;fill:rgb(91.764706%,17.647059%,18.039216%);fill-opacity:1;" d="M 51.800781 79.488281 L 48.960938 79.488281 L 45.523438 68.332031 L 48.019531 68.332031 L 50.152344 75.1875 L 50.628906 77.242188 C 51.707031 74.265625 52.472656 71.230469 52.839844 68.332031 L 55.257812 68.332031 C 54.585938 72.019531 53.433594 76.050781 51.800781 79.488281 Z M 51.800781 79.488281 "/>
<path style=" stroke:none;fill-rule:nonzero;fill:rgb(91.764706%,17.647059%,18.039216%);fill-opacity:1;" d="M 62.726562 76.914062 C 61.902344 77.625 61.019531 78.027344 60.230469 78.027344 C 59.117188 78.027344 58.503906 77.355469 58.503906 76.28125 C 58.503906 75.109375 59.15625 74.265625 61.746094 74.265625 L 62.707031 74.265625 Z M 65.011719 79.488281 L 65.011719 71.519531 C 65.011719 69.484375 63.839844 68.140625 61.035156 68.140625 C 59.40625 68.140625 57.964844 68.542969 56.792969 69.0625 L 57.121094 70.484375 C 58.042969 70.136719 59.230469 69.832031 60.382812 69.832031 C 61.996094 69.832031 62.6875 70.484375 62.6875 71.828125 L 62.6875 72.84375 L 61.882812 72.84375 C 57.964844 72.84375 56.199219 74.363281 56.199219 76.644531 C 56.199219 78.625 57.371094 79.738281 59.558594 79.738281 C 60.980469 79.738281 62.015625 79.160156 63.015625 78.296875 L 63.1875 79.507812 L 65.011719 79.507812 Z M 65.011719 79.488281 "/>
<path style=" stroke:none;fill-rule:nonzero;fill:rgb(91.764706%,17.647059%,18.039216%);fill-opacity:1;" d="M 32.890625 81.390625 C 32.238281 82.347656 31.179688 83.097656 30.027344 83.519531 L 28.894531 82.195312 C 29.777344 81.753906 30.527344 81.023438 30.875 80.351562 C 31.179688 79.757812 31.296875 78.96875 31.296875 77.125 L 31.296875 64.398438 L 33.714844 64.398438 L 33.714844 76.953125 C 33.734375 79.410156 33.542969 80.410156 32.890625 81.390625 Z M 32.890625 81.390625 "/>
</g>
</svg>
