<?xml version="1.0" encoding="UTF-8"?>
<svg xmlns="http://www.w3.org/2000/svg" xmlns:xlink="http://www.w3.org/1999/xlink" width="96px" height="96px" viewBox="0 0 96 96" version="1.1">
<g id="surface1">
<path style=" stroke:none;fill-rule:nonzero;fill:rgb(10.196078%,9.803922%,9.411765%);fill-opacity:1;" d="M 80.101562 41.222656 L 83.039062 41.242188 C 83.039062 41.242188 77.566406 48.652344 77.125 49.265625 C 76.972656 49.460938 76.761719 49.671875 76.644531 49.9375 C 76.359375 50.59375 76.070312 52.03125 76.070312 52.03125 L 73.382812 52.050781 C 73.382812 52.050781 73.804688 50.554688 73.785156 49.746094 C 73.765625 49.054688 73.421875 48.34375 73.210938 47.65625 C 73 46.945312 72.730469 45.5625 72.730469 45.5625 L 75.496094 45.5625 L 75.878906 47.097656 L 80.101562 41.222656 "/>
<path style=" stroke:none;fill-rule:nonzero;fill:rgb(10.196078%,9.803922%,9.411765%);fill-opacity:1;" d="M 74.535156 42.777344 C 75.070312 43.105469 75.417969 44.910156 75.417969 44.910156 C 75.417969 44.910156 72.574219 44.945312 71.019531 44.945312 L 69.675781 44.945312 L 68.042969 52.011719 L 65.566406 52.011719 C 65.566406 52.011719 67.105469 44.332031 67.46875 42.949219 C 67.585938 42.507812 68.273438 42.585938 69.445312 42.585938 L 71.308594 42.585938 C 72.519531 42.566406 73.9375 42.414062 74.535156 42.777344 "/>
<path style=" stroke:none;fill-rule:nonzero;fill:rgb(10.196078%,9.803922%,9.411765%);fill-opacity:1;" d="M 62.976562 46.214844 C 62.976562 46.214844 63.054688 45.753906 62.707031 45.234375 C 62.417969 44.792969 62.152344 44.679688 61.382812 44.660156 C 59.230469 44.582031 59.269531 46.195312 59.269531 46.195312 Z M 65.320312 44.390625 C 65.625 45.523438 65.03125 48.210938 65.03125 48.210938 C 65.03125 48.210938 61.882812 48.152344 60.152344 48.210938 C 59.617188 48.230469 58.980469 48.152344 58.808594 48.402344 C 58.578125 48.75 58.886719 49.285156 59.15625 49.515625 C 59.460938 49.785156 60.039062 49.804688 60.25 49.84375 C 61.652344 50.015625 64.570312 49.882812 64.570312 49.882812 L 64.070312 52.128906 C 64.070312 52.128906 59.941406 52.339844 57.867188 51.839844 C 57.464844 51.742188 57.082031 51.550781 56.8125 51.265625 C 56.734375 51.1875 56.679688 51.089844 56.621094 50.996094 C 56.5625 50.917969 56.410156 50.6875 56.332031 50.496094 C 55.851562 49.230469 56.390625 46.828125 56.910156 45.542969 C 56.964844 45.390625 57.042969 45.195312 57.121094 45.042969 C 57.214844 44.851562 57.3125 44.621094 57.390625 44.488281 C 57.445312 44.410156 57.503906 44.351562 57.5625 44.273438 C 57.621094 44.179688 57.695312 44.101562 57.773438 44.007812 C 57.964844 43.777344 58.175781 43.621094 58.445312 43.429688 C 59.308594 42.777344 60.863281 42.277344 62.746094 42.46875 C 63.457031 42.546875 64.511719 42.796875 65.03125 43.527344 C 65.164062 43.71875 65.242188 44.101562 65.320312 44.390625 Z M 65.320312 44.390625 "/>
<path style=" stroke:none;fill-rule:nonzero;fill:rgb(10.196078%,9.803922%,9.411765%);fill-opacity:1;" d="M 53.933594 42.566406 L 56.332031 42.546875 C 56.332031 42.546875 54.988281 48.902344 54.316406 52.011719 L 51.550781 52.011719 C 49.613281 52.011719 47.902344 52.242188 47.15625 50.859375 C 46.445312 49.515625 47.117188 47.308594 47.441406 45.8125 C 47.671875 44.753906 48.132812 42.566406 48.132812 42.566406 L 50.628906 42.546875 C 50.628906 42.546875 49.921875 45.925781 49.632812 47.617188 C 49.535156 48.230469 49.304688 48.789062 49.535156 49.246094 C 49.746094 49.671875 50.054688 49.707031 50.976562 49.726562 C 51.265625 49.726562 52.222656 49.726562 52.222656 49.726562 L 53.933594 42.566406 "/>
<path style=" stroke:none;fill-rule:nonzero;fill:rgb(10.196078%,9.803922%,9.411765%);fill-opacity:1;" d="M 42.664062 47.15625 C 42.910156 46.253906 43.277344 45.292969 43.238281 44.488281 C 43.179688 43.621094 42.46875 42.835938 41.992188 42.679688 C 40.589844 42.183594 39.265625 42.875 38.746094 43.449219 C 38.074219 44.179688 37.84375 45.042969 37.59375 46.214844 C 37.421875 47.097656 37.265625 48.019531 37.59375 48.691406 C 38.167969 49.902344 39.957031 49.632812 41.894531 49.652344 C 42.183594 48.863281 42.433594 48 42.664062 47.15625 Z M 46.003906 43.621094 C 46.273438 45.621094 45.214844 47.828125 44.503906 49.746094 C 45.253906 49.804688 45.886719 49.726562 45.945312 49.785156 C 46.003906 49.863281 45.445312 52.070312 45.253906 52.089844 C 44.660156 52.109375 42.71875 52.128906 41.914062 52.128906 C 39.265625 52.128906 36.789062 52.300781 35.519531 50.976562 C 35 50.4375 34.65625 49.515625 34.558594 48.882812 C 34.425781 47.808594 34.597656 46.617188 34.847656 45.636719 C 35.078125 44.753906 35.367188 43.929688 35.808594 43.160156 C 36.921875 41.222656 38.859375 39.78125 42.105469 40.109375 C 42.738281 40.167969 43.640625 40.453125 44.199219 40.78125 C 44.238281 40.800781 44.371094 40.914062 44.410156 40.933594 C 45.160156 41.394531 45.867188 42.546875 46.003906 43.621094 Z M 46.003906 43.621094 "/>
<path style=" stroke:none;fill-rule:nonzero;fill:rgb(10.196078%,9.803922%,9.411765%);fill-opacity:1;" d="M 34.273438 42.585938 C 34.117188 43.316406 33.945312 44.140625 33.773438 44.871094 L 31.105469 44.871094 C 31.316406 44.0625 31.46875 43.277344 31.679688 42.585938 C 32.542969 42.566406 33.351562 42.585938 34.273438 42.585938 "/>
<path style=" stroke:none;fill-rule:nonzero;fill:rgb(10.196078%,9.803922%,9.411765%);fill-opacity:1;" d="M 31.027344 45.523438 L 33.601562 45.523438 C 33.253906 47.386719 32.601562 50.398438 32.0625 52.492188 C 31.738281 53.796875 31.527344 54.757812 30.625 55.449219 C 30.546875 55.507812 30.488281 55.488281 30.433594 55.546875 C 30.257812 55.699219 29.511719 55.890625 29.089844 55.929688 C 28.414062 56.007812 27.648438 55.929688 26.804688 55.929688 C 27.015625 55.125 27.265625 54.164062 27.457031 53.453125 C 29.492188 53.703125 29.546875 51.78125 29.933594 49.921875 C 30.203125 48.84375 30.894531 45.945312 31.027344 45.523438 "/>
<path style=" stroke:none;fill-rule:nonzero;fill:rgb(12.941176%,37.647059%,60.784314%);fill-opacity:1;" d="M 25.019531 50.398438 L 24.960938 50.535156 C 24.019531 52.359375 22.347656 53.492188 19.96875 53.546875 C 18.855469 53.566406 17.796875 53.28125 17.105469 52.972656 C 15.609375 52.300781 14.363281 51.054688 13.671875 49.726562 C 12.691406 47.828125 12.519531 45.175781 14.554688 43.179688 C 14.59375 43.179688 14.304688 43.601562 14.34375 43.601562 L 14.285156 43.796875 C 12.804688 48.402344 17.355469 52.359375 21.773438 51.917969 C 22.828125 51.800781 24.171875 51.226562 25.019531 50.398438 "/>
<path style=" stroke:none;fill-rule:nonzero;fill:rgb(12.941176%,37.647059%,60.784314%);fill-opacity:1;" d="M 22.328125 48.480469 C 23.441406 48.480469 24.59375 47.960938 25.285156 47.230469 C 24.691406 48.75 22.945312 49.746094 20.601562 49.421875 C 18.644531 49.152344 16.78125 47.195312 16.589844 45.214844 C 16.453125 43.777344 16.953125 42.929688 17.777344 41.894531 C 17.492188 42.433594 17.394531 42.855469 17.355469 43.125 C 17.070312 46.234375 19.851562 48.460938 22.328125 48.480469 "/>
<path style=" stroke:none;fill-rule:nonzero;fill:rgb(12.941176%,37.647059%,60.784314%);fill-opacity:1;" d="M 25.191406 44.621094 C 25.019531 45.023438 24.019531 45.773438 23.578125 45.847656 C 21.832031 46.214844 20.71875 45.390625 20.140625 44.449219 C 20.042969 44.3125 19.890625 43.929688 19.871094 43.832031 C 19.640625 43.066406 19.757812 41.894531 20.429688 41.300781 C 20.21875 41.875 20.199219 42.527344 20.292969 42.96875 C 20.351562 43.238281 20.5625 43.679688 20.753906 43.96875 C 21.121094 44.488281 21.351562 44.621094 21.8125 44.890625 C 22.023438 45.023438 22.234375 45.121094 22.328125 45.140625 C 22.769531 45.3125 23.691406 45.636719 25.191406 44.621094 "/>
</g>
</svg>
