<?xml version="1.0" encoding="UTF-8"?>
<svg xmlns="http://www.w3.org/2000/svg" xmlns:xlink="http://www.w3.org/1999/xlink" width="96px" height="96px" viewBox="0 0 96 96" version="1.1">
<defs>
<linearGradient id="linear0" gradientUnits="userSpaceOnUse" x1="-565.7513" y1="-17.4495" x2="-318.8947" y2="-264.3405" gradientTransform="matrix(0.19177,0,0,-0.19175,132.228768,21.599347)">
<stop offset="0" style="stop-color:rgb(0%,0%,0%);stop-opacity:1;"/>
<stop offset="1" style="stop-color:rgb(100%,100%,100%);stop-opacity:1;"/>
</linearGradient>
<linearGradient id="linear1" gradientUnits="userSpaceOnUse" x1="-307.7168" y1="-253.1641" x2="-554.5728" y2="-6.2736" gradientTransform="matrix(0.19177,0,0,-0.19175,132.228768,21.599347)">
<stop offset="0" style="stop-color:rgb(0%,0%,0%);stop-opacity:1;"/>
<stop offset="1" style="stop-color:rgb(100%,100%,100%);stop-opacity:1;"/>
</linearGradient>
</defs>
<g id="surface1">
<path style=" stroke:none;fill-rule:nonzero;fill:url(#linear0);" d="M 47.941406 64.414062 C 62.804688 84.691406 77.355469 58.753906 77.335938 43.160156 C 77.320312 24.730469 58.636719 14.417969 47.921875 14.417969 C 30.757812 14.4375 14.398438 28.628906 14.398438 48.058594 C 14.398438 69.636719 33.160156 81.601562 47.921875 81.601562 C 44.582031 81.121094 33.425781 78.738281 33.273438 53.050781 C 33.175781 35.691406 38.9375 28.742188 47.886719 31.796875 C 48.078125 31.871094 57.753906 35.691406 57.753906 48.152344 C 57.792969 60.574219 47.941406 64.414062 47.941406 64.414062 Z M 47.941406 64.414062 "/>
<path style=" stroke:none;fill-rule:nonzero;fill:url(#linear1);" d="M 47.921875 31.796875 C 38.09375 28.414062 26.074219 36.5 26.074219 52.722656 C 26.074219 79.199219 45.695312 81.601562 48.078125 81.601562 C 65.261719 81.601562 81.601562 67.410156 81.601562 47.980469 C 81.601562 26.398438 62.839844 14.4375 48.078125 14.4375 C 52.167969 13.863281 70.136719 18.875 70.136719 43.429688 C 70.136719 59.441406 56.71875 68.179688 47.980469 64.433594 C 47.789062 64.359375 38.113281 60.539062 38.113281 48.078125 C 38.113281 35.671875 47.921875 31.796875 47.921875 31.796875 Z M 47.921875 31.796875 "/>
</g>
</svg>
