<?xml version="1.0" encoding="UTF-8"?>
<svg xmlns="http://www.w3.org/2000/svg" xmlns:xlink="http://www.w3.org/1999/xlink" width="96px" height="96px" viewBox="0 0 96 96" version="1.1">
<g id="surface1">
<path style=" stroke:none;fill-rule:nonzero;fill:rgb(55.686275%,44.313725%,30.588235%);fill-opacity:1;" d="M 78.277344 46.273438 C 78.222656 46.292969 78.144531 46.425781 78.144531 46.503906 C 78.125 47 78.125 48.34375 78.125 49.265625 C 78.125 49.285156 78.164062 49.34375 78.203125 49.34375 C 78.394531 49.363281 78.855469 49.363281 79.238281 49.363281 C 79.777344 49.363281 80.101562 49.285156 80.273438 49.210938 C 80.734375 48.980469 80.945312 48.480469 80.945312 47.941406 C 80.945312 46.714844 80.082031 46.253906 78.816406 46.253906 C 78.71875 46.234375 78.46875 46.234375 78.277344 46.273438 Z M 81.542969 51.9375 C 81.542969 50.6875 80.621094 49.996094 78.949219 49.996094 C 78.875 49.996094 78.335938 49.976562 78.222656 50.015625 C 78.183594 50.035156 78.125 50.054688 78.125 50.09375 C 78.125 50.996094 78.105469 52.414062 78.144531 52.972656 C 78.164062 53.222656 78.355469 53.546875 78.566406 53.664062 C 78.796875 53.796875 79.316406 53.816406 79.660156 53.816406 C 80.679688 53.777344 81.542969 53.222656 81.542969 51.9375 Z M 75.707031 45.582031 C 75.839844 45.582031 76.203125 45.621094 77.183594 45.621094 C 78.105469 45.621094 78.835938 45.601562 79.738281 45.601562 C 80.832031 45.601562 82.347656 45.984375 82.347656 47.636719 C 82.347656 48.441406 81.773438 49.09375 81.042969 49.402344 C 81.003906 49.421875 81.003906 49.441406 81.042969 49.460938 C 82.097656 49.726562 83.039062 50.378906 83.039062 51.628906 C 83.039062 52.839844 82.273438 53.605469 81.175781 54.085938 C 80.503906 54.375 79.679688 54.46875 78.816406 54.46875 C 78.164062 54.46875 76.433594 54.394531 75.476562 54.414062 C 75.378906 54.375 75.570312 53.914062 75.648438 53.835938 C 75.878906 53.816406 76.050781 53.816406 76.300781 53.742188 C 76.644531 53.644531 76.683594 53.546875 76.722656 53.03125 C 76.742188 52.589844 76.742188 51.015625 76.742188 49.902344 C 76.742188 48.363281 76.761719 47.328125 76.742188 46.828125 C 76.722656 46.445312 76.589844 46.308594 76.320312 46.234375 C 76.109375 46.195312 75.742188 46.136719 75.457031 46.097656 C 75.417969 46.0625 75.628906 45.636719 75.707031 45.582031 Z M 68.410156 53.453125 C 68.71875 53.703125 69.3125 53.796875 69.832031 53.796875 C 70.523438 53.796875 71.195312 53.664062 71.847656 53.070312 C 72.519531 52.453125 72.980469 51.53125 72.980469 50.035156 C 72.980469 48.613281 72.441406 47.441406 71.328125 46.753906 C 70.695312 46.367188 69.886719 46.195312 68.945312 46.195312 C 68.679688 46.195312 68.410156 46.214844 68.238281 46.292969 C 68.199219 46.308594 68.101562 46.425781 68.101562 46.503906 C 68.082031 46.753906 68.082031 48.710938 68.082031 49.84375 C 68.082031 51.015625 68.082031 52.664062 68.101562 52.859375 C 68.121094 53.03125 68.21875 53.320312 68.410156 53.453125 Z M 65.53125 45.582031 C 65.777344 45.582031 66.699219 45.621094 67.140625 45.621094 C 67.929688 45.621094 68.503906 45.582031 70.023438 45.582031 C 71.289062 45.582031 72.34375 45.925781 73.113281 46.558594 C 74.035156 47.347656 74.515625 48.460938 74.515625 49.804688 C 74.515625 51.707031 73.652344 52.820312 72.769531 53.453125 C 71.902344 54.105469 70.753906 54.46875 69.140625 54.46875 C 68.273438 54.46875 66.796875 54.453125 65.566406 54.433594 L 65.546875 54.433594 C 65.492188 54.316406 65.644531 53.875 65.761719 53.855469 C 66.085938 53.816406 66.183594 53.796875 66.335938 53.742188 C 66.605469 53.644531 66.644531 53.492188 66.679688 53.03125 C 66.71875 52.167969 66.699219 51.109375 66.699219 49.921875 C 66.699219 49.074219 66.71875 47.425781 66.679688 46.886719 C 66.644531 46.445312 66.453125 46.328125 66.066406 46.253906 C 65.875 46.214844 65.625 46.15625 65.28125 46.117188 C 65.242188 46.042969 65.472656 45.65625 65.53125 45.582031 Z M 65.53125 45.582031 "/>
<path style=" stroke:none;fill-rule:nonzero;fill:rgb(26.666667%,17.647059%,13.333333%);fill-opacity:1;" d="M 50.246094 53.933594 C 49.9375 53.894531 49.707031 53.835938 49.421875 53.722656 C 49.382812 53.703125 49.324219 53.566406 49.324219 53.511719 C 49.304688 53.070312 49.304688 51.800781 49.304688 50.957031 C 49.304688 50.265625 49.191406 49.671875 48.902344 49.265625 C 48.558594 48.789062 48.078125 48.5 47.441406 48.5 C 46.886719 48.5 46.136719 48.882812 45.523438 49.402344 C 45.503906 49.421875 45.40625 49.496094 45.425781 49.363281 C 45.425781 49.230469 45.445312 48.941406 45.464844 48.75 C 45.484375 48.574219 45.371094 48.480469 45.371094 48.480469 C 44.964844 48.691406 43.832031 48.941406 43.410156 48.980469 C 43.105469 49.035156 43.027344 49.324219 43.355469 49.441406 L 43.371094 49.441406 C 43.71875 49.535156 43.949219 49.652344 44.121094 49.765625 C 44.257812 49.863281 44.238281 50.015625 44.238281 50.113281 C 44.257812 51.054688 44.257812 52.511719 44.21875 53.320312 C 44.199219 53.625 44.121094 53.742188 43.890625 53.796875 L 43.910156 53.777344 C 43.738281 53.816406 43.601562 53.855469 43.371094 53.875 C 43.296875 53.953125 43.296875 54.355469 43.371094 54.453125 C 43.507812 54.453125 44.238281 54.414062 44.851562 54.414062 C 45.675781 54.414062 46.117188 54.453125 46.328125 54.453125 C 46.425781 54.355469 46.445312 53.972656 46.386719 53.875 C 46.136719 53.855469 45.964844 53.835938 45.8125 53.777344 C 45.582031 53.722656 45.523438 53.605469 45.503906 53.355469 C 45.484375 52.683594 45.484375 51.265625 45.484375 50.304688 C 45.484375 50.035156 45.5625 49.921875 45.636719 49.84375 C 45.925781 49.59375 46.40625 49.421875 46.808594 49.421875 C 47.210938 49.421875 47.480469 49.554688 47.671875 49.707031 C 47.941406 49.9375 48.039062 50.265625 48.078125 50.496094 C 48.132812 51.035156 48.113281 52.109375 48.113281 53.050781 C 48.113281 53.546875 48.078125 53.683594 47.886719 53.742188 C 47.789062 53.777344 47.578125 53.835938 47.308594 53.855469 C 47.210938 53.953125 47.25 54.335938 47.308594 54.433594 C 47.671875 54.433594 48.097656 54.394531 48.730469 54.394531 C 49.515625 54.394531 50.015625 54.433594 50.226562 54.433594 C 50.265625 54.414062 50.285156 54.027344 50.246094 53.933594 Z M 53.742188 49.113281 C 53.070312 49.113281 52.644531 49.632812 52.644531 50.4375 C 52.644531 51.265625 53.011719 52.203125 54.046875 52.203125 C 54.222656 52.203125 54.546875 52.128906 54.699219 51.957031 C 54.949219 51.726562 55.105469 51.265625 55.105469 50.785156 C 55.125 49.746094 54.605469 49.113281 53.742188 49.113281 Z M 53.644531 54.699219 C 53.394531 54.699219 53.222656 54.777344 53.105469 54.835938 C 52.570312 55.179688 52.339844 55.507812 52.339844 55.890625 C 52.339844 56.257812 52.472656 56.542969 52.78125 56.792969 C 53.144531 57.101562 53.644531 57.253906 54.296875 57.253906 C 55.585938 57.253906 56.160156 56.5625 56.160156 55.871094 C 56.160156 55.390625 55.910156 55.085938 55.429688 54.894531 C 55.066406 54.777344 54.433594 54.699219 53.644531 54.699219 Z M 53.742188 57.984375 C 52.972656 57.984375 52.414062 57.8125 51.9375 57.445312 C 51.476562 57.101562 51.265625 56.5625 51.265625 56.199219 C 51.265625 56.101562 51.28125 55.8125 51.511719 55.566406 C 51.648438 55.410156 51.957031 55.125 52.683594 54.625 C 52.703125 54.605469 52.722656 54.605469 52.722656 54.566406 C 52.722656 54.527344 52.703125 54.507812 52.664062 54.507812 C 52.070312 54.277344 51.898438 53.914062 51.839844 53.722656 L 51.839844 53.703125 C 51.820312 53.625 51.800781 53.546875 51.917969 53.472656 C 52.011719 53.414062 52.128906 53.335938 52.261719 53.242188 C 52.472656 53.105469 52.703125 52.972656 52.839844 52.859375 C 52.859375 52.839844 52.859375 52.800781 52.859375 52.78125 C 52.859375 52.761719 52.839844 52.722656 52.800781 52.722656 C 51.917969 52.433594 51.476562 51.78125 51.476562 50.785156 C 51.476562 50.132812 51.761719 49.554688 52.28125 49.191406 C 52.628906 48.921875 53.53125 48.574219 54.105469 48.574219 L 54.144531 48.574219 C 54.738281 48.59375 55.066406 48.710938 55.527344 48.882812 C 55.777344 48.980469 56.027344 49.019531 56.351562 49.019531 C 56.851562 49.019531 57.0625 48.863281 57.234375 48.691406 C 57.253906 48.710938 57.273438 48.789062 57.292969 48.941406 C 57.3125 49.113281 57.253906 49.34375 57.121094 49.515625 C 57.023438 49.652344 56.792969 49.765625 56.5625 49.765625 L 56.503906 49.765625 C 56.273438 49.746094 56.179688 49.707031 56.179688 49.707031 L 56.121094 49.726562 C 56.101562 49.746094 56.121094 49.785156 56.140625 49.824219 L 56.160156 49.84375 C 56.179688 49.957031 56.238281 50.304688 56.238281 50.378906 C 56.238281 51.417969 55.8125 51.878906 55.371094 52.203125 C 54.949219 52.511719 54.453125 52.722656 53.894531 52.78125 C 53.875 52.78125 53.835938 52.78125 53.722656 52.800781 C 53.664062 52.800781 53.566406 52.820312 53.546875 52.820312 L 53.566406 52.820312 C 53.472656 52.839844 53.222656 52.972656 53.222656 53.183594 C 53.222656 53.375 53.335938 53.605469 53.875 53.644531 C 53.992188 53.664062 54.105469 53.664062 54.222656 53.664062 C 54.949219 53.722656 55.832031 53.777344 56.257812 53.914062 C 56.832031 54.125 57.195312 54.644531 57.195312 55.257812 C 57.195312 56.199219 56.523438 57.0625 55.410156 57.601562 C 54.875 57.847656 54.335938 57.984375 53.742188 57.984375 Z M 60.941406 49.171875 C 60.671875 49.171875 60.441406 49.230469 60.25 49.363281 C 59.75 49.671875 59.5 50.265625 59.5 51.167969 C 59.5 52.820312 60.328125 53.992188 61.515625 53.992188 C 61.863281 53.992188 62.152344 53.894531 62.378906 53.683594 C 62.746094 53.375 62.9375 52.78125 62.9375 51.917969 C 62.976562 50.265625 62.152344 49.171875 60.941406 49.171875 Z M 61.171875 54.585938 C 59.019531 54.585938 58.253906 53.011719 58.253906 51.53125 C 58.253906 50.496094 58.675781 49.691406 59.5 49.132812 C 60.097656 48.769531 60.804688 48.558594 61.441406 48.558594 C 63.089844 48.558594 64.242188 49.726562 64.242188 51.4375 C 64.242188 52.589844 63.78125 53.492188 62.917969 54.046875 C 62.496094 54.316406 61.765625 54.585938 61.171875 54.585938 Z M 38.648438 49.171875 C 38.378906 49.171875 38.152344 49.230469 37.957031 49.363281 C 37.460938 49.671875 37.210938 50.265625 37.210938 51.167969 C 37.210938 52.820312 38.035156 53.992188 39.226562 53.992188 C 39.570312 53.992188 39.859375 53.894531 40.089844 53.683594 C 40.453125 53.375 40.644531 52.78125 40.644531 51.917969 C 40.664062 50.265625 39.859375 49.171875 38.648438 49.171875 Z M 38.859375 54.585938 C 36.710938 54.585938 35.941406 53.011719 35.941406 51.53125 C 35.941406 50.496094 36.363281 49.691406 37.191406 49.132812 C 37.785156 48.769531 38.496094 48.558594 39.128906 48.558594 C 40.78125 48.558594 41.933594 49.726562 41.933594 51.4375 C 41.933594 52.589844 41.472656 53.492188 40.609375 54.046875 C 40.203125 54.316406 39.476562 54.585938 38.859375 54.585938 Z M 24.421875 54.453125 C 24.402344 54.414062 24.363281 54.296875 24.382812 54.164062 C 24.382812 54.066406 24.402344 53.992188 24.421875 53.972656 C 24.691406 53.933594 24.824219 53.894531 24.980469 53.855469 C 25.230469 53.796875 25.324219 53.644531 25.34375 53.335938 C 25.382812 52.570312 25.382812 51.128906 25.363281 50.132812 L 25.363281 50.113281 C 25.363281 49.996094 25.363281 49.863281 25.230469 49.765625 C 25.019531 49.632812 24.789062 49.515625 24.460938 49.441406 C 24.34375 49.402344 24.269531 49.34375 24.289062 49.265625 C 24.289062 49.191406 24.363281 49.09375 24.539062 49.074219 C 24.960938 49.035156 26.035156 48.769531 26.476562 48.574219 C 26.496094 48.59375 26.535156 48.671875 26.535156 48.789062 L 26.515625 48.921875 C 26.496094 49.054688 26.496094 49.230469 26.496094 49.382812 C 26.496094 49.441406 26.554688 49.476562 26.59375 49.476562 C 26.609375 49.476562 26.648438 49.460938 26.667969 49.460938 C 27.476562 48.824219 28.203125 48.59375 28.589844 48.59375 C 29.203125 48.59375 29.683594 48.882812 30.046875 49.496094 C 30.066406 49.535156 30.105469 49.554688 30.144531 49.554688 C 30.164062 49.554688 30.203125 49.535156 30.222656 49.515625 C 30.96875 48.941406 31.71875 48.613281 32.199219 48.613281 C 33.371094 48.613281 34.0625 49.476562 34.0625 50.976562 C 34.0625 51.398438 34.0625 51.9375 34.042969 52.433594 C 34.042969 52.875 34.023438 53.28125 34.023438 53.566406 C 34.023438 53.625 34.117188 53.835938 34.253906 53.875 C 34.425781 53.972656 34.675781 54.007812 34.980469 54.046875 L 35 54.046875 C 35.019531 54.144531 34.980469 54.46875 34.925781 54.527344 C 34.847656 54.527344 34.734375 54.527344 34.617188 54.507812 C 34.367188 54.488281 34.042969 54.488281 33.65625 54.488281 C 32.871094 54.488281 32.46875 54.507812 32.082031 54.527344 C 32.0625 54.433594 32.042969 54.125 32.082031 54.046875 C 32.3125 54.007812 32.429688 53.972656 32.5625 53.933594 C 32.8125 53.855469 32.871094 53.742188 32.890625 53.414062 C 32.890625 53.164062 32.945312 51.128906 32.871094 50.628906 C 32.792969 50.132812 32.410156 49.535156 31.585938 49.535156 C 31.277344 49.535156 30.777344 49.671875 30.296875 50.035156 C 30.277344 50.054688 30.238281 50.132812 30.238281 50.167969 L 30.238281 50.1875 C 30.296875 50.457031 30.296875 50.765625 30.296875 51.226562 L 30.296875 52.050781 C 30.296875 52.628906 30.277344 53.144531 30.296875 53.546875 C 30.296875 53.816406 30.46875 53.894531 30.605469 53.933594 C 30.679688 53.953125 30.738281 53.953125 30.796875 53.972656 C 30.910156 53.992188 31.027344 54.027344 31.199219 54.066406 C 31.21875 54.125 31.21875 54.277344 31.179688 54.414062 C 31.160156 54.488281 31.140625 54.527344 31.125 54.546875 C 30.699219 54.527344 30.257812 54.527344 29.605469 54.527344 C 29.414062 54.527344 29.089844 54.546875 28.820312 54.546875 C 28.589844 54.546875 28.378906 54.566406 28.242188 54.566406 C 28.222656 54.546875 28.203125 54.453125 28.203125 54.316406 C 28.203125 54.203125 28.222656 54.105469 28.261719 54.085938 C 28.320312 54.066406 28.378906 54.066406 28.433594 54.066406 C 28.589844 54.046875 28.703125 54.007812 28.839844 53.992188 C 29.050781 53.933594 29.125 53.816406 29.144531 53.53125 C 29.183594 52.894531 29.222656 51.089844 29.125 50.628906 C 28.972656 49.902344 28.550781 49.535156 27.878906 49.535156 C 27.496094 49.535156 26.996094 49.726562 26.59375 50.035156 C 26.535156 50.09375 26.476562 50.207031 26.476562 50.324219 L 26.476562 51.070312 C 26.476562 51.972656 26.476562 53.125 26.496094 53.605469 C 26.515625 53.761719 26.554688 53.933594 26.839844 53.992188 C 26.898438 54.007812 27.015625 54.027344 27.128906 54.046875 L 27.359375 54.085938 C 27.378906 54.164062 27.378906 54.46875 27.320312 54.566406 C 27.1875 54.566406 27.054688 54.546875 26.859375 54.546875 C 26.59375 54.527344 26.246094 54.527344 25.882812 54.527344 C 25.441406 54.527344 25.113281 54.546875 24.863281 54.546875 C 24.710938 54.453125 24.574219 54.453125 24.421875 54.453125 Z M 24.421875 54.453125 "/>
<path style=" stroke:none;fill-rule:nonzero;fill:rgb(100%,100%,100%);fill-opacity:1;" d="M 17.761719 57.484375 L 17.242188 57.3125 C 17.242188 57.3125 17.300781 54.664062 16.359375 54.46875 C 15.726562 53.742188 16.453125 23.367188 18.738281 54.375 C 18.738281 54.375 17.953125 54.757812 17.816406 55.429688 C 17.664062 56.101562 17.761719 57.484375 17.761719 57.484375 Z M 17.761719 57.484375 "/>
<path style=" stroke:none;fill-rule:nonzero;fill:rgb(65.098039%,63.921569%,52.156863%);fill-opacity:1;" d="M 17.761719 57.484375 L 17.242188 57.3125 C 17.242188 57.3125 17.300781 54.664062 16.359375 54.46875 C 15.726562 53.742188 16.453125 23.367188 18.738281 54.375 C 18.738281 54.375 17.953125 54.757812 17.816406 55.429688 C 17.664062 56.101562 17.761719 57.484375 17.761719 57.484375 Z M 17.761719 57.484375 "/>
<path style=" stroke:none;fill-rule:nonzero;fill:rgb(100%,100%,100%);fill-opacity:1;" d="M 18.046875 54.929688 C 18.046875 54.929688 22.578125 51.957031 21.523438 45.734375 C 20.503906 41.222656 18.085938 39.742188 17.816406 39.167969 C 17.53125 38.765625 17.242188 38.054688 17.242188 38.054688 L 17.433594 50.609375 C 17.433594 50.628906 17.050781 54.46875 18.046875 54.929688 "/>
<path style=" stroke:none;fill-rule:nonzero;fill:rgb(28.627451%,61.568627%,29.019608%);fill-opacity:1;" d="M 18.046875 54.929688 C 18.046875 54.929688 22.578125 51.957031 21.523438 45.734375 C 20.503906 41.222656 18.085938 39.742188 17.816406 39.167969 C 17.53125 38.765625 17.242188 38.054688 17.242188 38.054688 L 17.433594 50.609375 C 17.433594 50.628906 17.050781 54.46875 18.046875 54.929688 "/>
<path style=" stroke:none;fill-rule:nonzero;fill:rgb(100%,100%,100%);fill-opacity:1;" d="M 16.972656 55.105469 C 16.972656 55.105469 12.710938 52.203125 12.960938 47.078125 C 13.210938 41.953125 16.203125 39.4375 16.800781 38.976562 C 17.183594 38.574219 17.183594 38.417969 17.222656 38.015625 C 17.492188 38.59375 17.433594 46.523438 17.472656 47.460938 C 17.585938 51.070312 17.261719 54.414062 16.972656 55.105469 Z M 16.972656 55.105469 "/>
<path style=" stroke:none;fill-rule:nonzero;fill:rgb(34.509804%,66.666667%,31.372549%);fill-opacity:1;" d="M 16.972656 55.105469 C 16.972656 55.105469 12.710938 52.203125 12.960938 47.078125 C 13.210938 41.953125 16.203125 39.4375 16.800781 38.976562 C 17.183594 38.574219 17.183594 38.417969 17.222656 38.015625 C 17.492188 38.59375 17.433594 46.523438 17.472656 47.460938 C 17.585938 51.070312 17.261719 54.414062 16.972656 55.105469 Z M 16.972656 55.105469 "/>
</g>
</svg>
