<?xml version="1.0" encoding="UTF-8"?>
<svg xmlns="http://www.w3.org/2000/svg" xmlns:xlink="http://www.w3.org/1999/xlink" width="96px" height="96px" viewBox="0 0 96 96" version="1.1">
<g id="surface1">
<path style=" stroke:none;fill-rule:nonzero;fill:rgb(41.568627%,49.411765%,56.862745%);fill-opacity:1;" d="M 29.816406 67.566406 L 27.109375 67.566406 C 27.015625 62.996094 26.746094 58.714844 26.324219 54.679688 L 26.304688 54.679688 L 22.195312 67.566406 L 20.140625 67.566406 L 16.050781 54.679688 L 16.03125 54.679688 C 15.726562 58.539062 15.53125 62.839844 15.457031 67.566406 L 12.960938 67.566406 C 13.113281 61.824219 13.515625 56.429688 14.152344 51.417969 L 17.511719 51.417969 L 21.40625 63.28125 L 21.425781 63.28125 L 25.34375 51.417969 L 28.550781 51.417969 C 29.261719 57.292969 29.683594 62.6875 29.816406 67.566406 "/>
<path style=" stroke:none;fill-rule:nonzero;fill:rgb(41.568627%,49.411765%,56.862745%);fill-opacity:1;" d="M 41.53125 55.640625 C 40.433594 61.613281 38.976562 65.953125 37.171875 68.660156 C 35.769531 70.753906 34.234375 71.789062 32.542969 71.789062 C 32.101562 71.789062 31.546875 71.65625 30.894531 71.386719 L 30.894531 69.945312 C 31.21875 69.984375 31.585938 70.023438 32.027344 70.023438 C 32.8125 70.023438 33.445312 69.8125 33.90625 69.371094 C 34.484375 68.851562 34.769531 68.257812 34.769531 67.601562 C 34.769531 67.160156 34.539062 66.238281 34.097656 64.859375 L 31.125 55.640625 L 33.773438 55.640625 L 35.902344 62.535156 C 36.382812 64.109375 36.574219 65.183594 36.5 65.816406 C 37.671875 62.707031 38.476562 59.308594 38.9375 55.640625 Z M 41.53125 55.640625 "/>
<path style=" stroke:none;fill-rule:nonzero;fill:rgb(98.039216%,54.117647%,23.137255%);fill-opacity:1;" d="M 77.53125 67.566406 L 69.847656 67.566406 L 69.847656 51.398438 L 72.441406 51.398438 L 72.441406 65.566406 L 77.53125 65.566406 Z M 77.53125 67.566406 "/>
<path style=" stroke:none;fill-rule:evenodd;fill:rgb(98.039216%,54.117647%,23.137255%);fill-opacity:1;" d="M 67.832031 67.949219 L 64.859375 66.488281 C 65.125 66.277344 65.375 66.046875 65.605469 65.761719 C 66.875 64.28125 67.507812 62.09375 67.507812 59.175781 C 67.507812 53.835938 65.414062 51.148438 61.210938 51.148438 C 59.15625 51.148438 57.542969 51.820312 56.390625 53.183594 C 55.125 54.664062 54.507812 56.851562 54.507812 59.75 C 54.507812 62.59375 55.066406 64.664062 56.179688 65.992188 C 57.195312 67.179688 58.734375 67.777344 60.804688 67.777344 C 61.574219 67.777344 62.285156 67.679688 62.917969 67.488281 L 66.777344 69.734375 Z M 58.214844 64.320312 C 57.5625 63.265625 57.234375 61.574219 57.234375 59.25 C 57.234375 55.179688 58.464844 53.144531 60.941406 53.144531 C 62.226562 53.144531 63.1875 53.625 63.78125 54.605469 C 64.433594 55.660156 64.761719 57.332031 64.761719 59.636719 C 64.761719 63.742188 63.53125 65.777344 61.054688 65.777344 C 59.769531 65.796875 58.828125 65.300781 58.214844 64.320312 "/>
<path style=" stroke:none;fill-rule:nonzero;fill:rgb(98.039216%,54.117647%,23.137255%);fill-opacity:1;" d="M 53.375 63.089844 C 53.375 64.453125 52.875 65.585938 51.878906 66.46875 C 50.878906 67.355469 49.515625 67.796875 47.828125 67.796875 C 46.253906 67.796875 44.71875 67.296875 43.238281 66.277344 L 43.929688 64.894531 C 45.195312 65.53125 46.367188 65.855469 47.40625 65.855469 C 48.382812 65.855469 49.132812 65.644531 49.691406 65.203125 C 50.246094 64.78125 50.574219 64.167969 50.574219 63.417969 C 50.574219 62.457031 49.902344 61.632812 48.671875 60.960938 C 47.539062 60.34375 45.273438 59.039062 45.273438 59.039062 C 44.042969 58.136719 43.429688 57.175781 43.429688 55.601562 C 43.429688 54.296875 43.890625 53.242188 44.8125 52.433594 C 45.734375 51.628906 46.925781 51.226562 48.363281 51.226562 C 49.863281 51.226562 51.226562 51.628906 52.453125 52.414062 L 51.820312 53.796875 C 50.765625 53.355469 49.726562 53.125 48.710938 53.125 C 47.886719 53.125 47.25 53.320312 46.789062 53.722656 C 46.347656 54.125 46.0625 54.625 46.0625 55.257812 C 46.0625 56.21875 46.753906 57.042969 48 57.753906 C 49.152344 58.367188 51.476562 59.691406 51.476562 59.691406 C 52.761719 60.558594 53.375 61.515625 53.375 63.089844 "/>
<path style=" stroke:none;fill-rule:evenodd;fill:rgb(41.568627%,49.411765%,56.862745%);fill-opacity:1;" d="M 80.773438 46.003906 C 79.21875 45.964844 78.007812 46.117188 76.992188 46.539062 C 76.703125 46.65625 76.222656 46.65625 76.1875 47.019531 C 76.339844 47.175781 76.359375 47.425781 76.492188 47.65625 C 76.722656 48.039062 77.125 48.574219 77.511719 48.84375 C 77.914062 49.152344 78.335938 49.460938 78.757812 49.746094 C 79.527344 50.226562 80.371094 50.496094 81.121094 50.957031 C 81.542969 51.226562 81.984375 51.570312 82.40625 51.878906 C 82.617188 52.03125 82.753906 52.28125 83.019531 52.378906 L 83.019531 52.320312 C 82.886719 52.148438 82.847656 51.898438 82.714844 51.6875 C 82.523438 51.496094 82.328125 51.320312 82.117188 51.128906 C 81.542969 50.363281 80.851562 49.707031 80.082031 49.152344 C 79.449219 48.730469 78.085938 48.132812 77.835938 47.425781 L 77.796875 47.386719 C 78.222656 47.347656 78.738281 47.195312 79.140625 47.078125 C 79.8125 46.90625 80.410156 46.945312 81.101562 46.769531 C 81.40625 46.695312 81.734375 46.597656 82.042969 46.503906 L 82.042969 46.328125 C 81.695312 45.984375 81.425781 45.503906 81.0625 45.175781 C 80.0625 44.3125 78.96875 43.488281 77.835938 42.777344 C 77.222656 42.394531 76.453125 42.144531 75.800781 41.796875 C 75.570312 41.683594 75.1875 41.625 75.035156 41.433594 C 74.6875 41.011719 74.476562 40.433594 74.226562 39.9375 C 73.671875 38.859375 73.113281 37.671875 72.632812 36.539062 C 72.289062 35.769531 72.078125 35.019531 71.636719 34.308594 C 69.621094 30.988281 67.429688 28.972656 64.089844 27.015625 C 63.359375 26.609375 62.515625 26.417969 61.59375 26.207031 C 61.113281 26.1875 60.613281 26.152344 60.132812 26.132812 C 59.828125 25.996094 59.5 25.632812 59.230469 25.441406 C 58.117188 24.730469 55.257812 23.210938 54.433594 25.230469 C 53.914062 26.496094 55.21875 27.742188 55.660156 28.398438 C 55.988281 28.839844 56.429688 29.355469 56.660156 29.855469 C 56.792969 30.183594 56.832031 30.546875 56.964844 30.894531 C 57.273438 31.757812 57.5625 32.71875 57.984375 33.503906 C 58.195312 33.90625 58.425781 34.347656 58.714844 34.714844 C 58.867188 34.925781 59.136719 35.019531 59.195312 35.386719 C 58.925781 35.769531 58.90625 36.363281 58.753906 36.84375 C 58.042969 39.054688 58.328125 41.777344 59.328125 43.410156 C 59.636719 43.890625 60.382812 44.964844 61.382812 44.5625 C 62.265625 44.21875 62.074219 43.105469 62.324219 42.125 C 62.378906 41.894531 62.34375 41.742188 62.457031 41.585938 L 62.457031 41.625 C 62.726562 42.164062 62.996094 42.699219 63.265625 43.238281 C 63.878906 44.199219 64.914062 45.195312 65.796875 45.847656 C 66.257812 46.195312 66.644531 46.808594 67.21875 47.019531 L 67.21875 46.964844 L 67.179688 46.964844 C 67.066406 46.789062 66.894531 46.714844 66.738281 46.578125 C 66.394531 46.234375 65.992188 45.792969 65.722656 45.40625 C 64.894531 44.3125 64.1875 43.105469 63.53125 41.855469 C 63.226562 41.242188 62.9375 40.589844 62.6875 39.972656 C 62.574219 39.742188 62.574219 39.398438 62.378906 39.265625 C 62.09375 39.6875 61.652344 40.070312 61.441406 40.589844 C 61.074219 41.433594 61.035156 42.46875 60.882812 43.546875 C 60.804688 43.566406 60.84375 43.546875 60.804688 43.585938 C 60.191406 43.429688 59.960938 42.777344 59.730469 42.238281 C 59.15625 40.859375 59.039062 38.628906 59.558594 37.019531 C 59.691406 36.613281 60.289062 35.328125 60.039062 34.925781 C 59.921875 34.558594 59.539062 34.347656 59.308594 34.042969 C 59.058594 33.675781 58.769531 33.195312 58.597656 32.792969 C 58.136719 31.699219 57.886719 30.488281 57.390625 29.394531 C 57.160156 28.894531 56.734375 28.359375 56.410156 27.898438 C 56.042969 27.378906 55.621094 26.996094 55.335938 26.378906 C 55.238281 26.167969 55.105469 25.804688 55.257812 25.574219 C 55.296875 25.421875 55.371094 25.363281 55.527344 25.324219 C 55.777344 25.113281 56.503906 25.382812 56.753906 25.496094 C 57.484375 25.785156 58.078125 26.074219 58.695312 26.476562 C 58.964844 26.667969 59.269531 27.035156 59.617188 27.148438 L 60.019531 27.148438 C 60.652344 27.28125 61.34375 27.1875 61.9375 27.359375 C 62.976562 27.6875 63.917969 28.1875 64.742188 28.703125 C 67.296875 30.316406 69.40625 32.621094 70.828125 35.386719 C 71.058594 35.828125 71.15625 36.25 71.386719 36.710938 C 71.789062 37.671875 72.308594 38.648438 72.710938 39.589844 C 73.113281 40.511719 73.515625 41.453125 74.09375 42.203125 C 74.378906 42.605469 75.550781 42.816406 76.089844 43.046875 C 76.472656 43.21875 77.089844 43.371094 77.433594 43.585938 C 78.105469 43.988281 78.757812 44.46875 79.390625 44.910156 C 79.738281 45.121094 80.71875 45.601562 80.773438 46.003906 "/>
<path style=" stroke:none;fill-rule:evenodd;fill:rgb(41.568627%,49.411765%,56.862745%);fill-opacity:1;" d="M 60.863281 29.03125 C 60.539062 29.03125 60.308594 29.070312 60.058594 29.125 L 60.058594 29.164062 L 60.097656 29.164062 C 60.25 29.472656 60.519531 29.683594 60.730469 29.972656 C 60.882812 30.277344 61.019531 30.585938 61.171875 30.910156 L 61.210938 30.875 C 61.476562 30.679688 61.613281 30.375 61.613281 29.894531 C 61.496094 29.761719 61.476562 29.625 61.382812 29.492188 C 61.265625 29.28125 61.019531 29.183594 60.863281 29.03125 "/>
<path style=" stroke:none;fill-rule:nonzero;fill:rgb(98.039216%,54.117647%,23.137255%);fill-opacity:1;" d="M 82.636719 67.566406 L 83.039062 67.566406 L 83.039062 65.585938 L 82.425781 65.585938 L 81.925781 66.929688 L 81.390625 65.585938 L 80.8125 65.585938 L 80.8125 67.566406 L 81.195312 67.566406 L 81.195312 66.046875 L 81.214844 66.046875 L 81.773438 67.546875 L 82.0625 67.546875 L 82.617188 66.046875 L 82.617188 67.566406 Z M 79.371094 67.566406 L 79.796875 67.566406 L 79.796875 65.914062 L 80.351562 65.914062 L 80.351562 65.566406 L 78.777344 65.566406 L 78.777344 65.914062 L 79.355469 65.914062 L 79.355469 67.566406 Z M 79.371094 67.566406 "/>
</g>
</svg>
