<?xml version="1.0" encoding="UTF-8"?>
<svg xmlns="http://www.w3.org/2000/svg" xmlns:xlink="http://www.w3.org/1999/xlink" width="96px" height="96px" viewBox="0 0 96 96" version="1.1">
<defs>
<clipPath id="clip1">
  <path d="M 31 36 L 47 36 L 47 54 L 31 54 Z M 31 36 "/>
</clipPath>
<clipPath id="clip2">
  <path d="M 38.417969 36.460938 L 31.738281 40.320312 C 31.488281 40.472656 31.335938 40.722656 31.335938 41.011719 L 31.335938 48.730469 C 31.335938 49.019531 31.488281 49.285156 31.738281 49.421875 L 38.417969 53.28125 C 38.667969 53.414062 38.976562 53.414062 39.226562 53.28125 L 45.90625 49.421875 C 46.15625 49.265625 46.308594 49.019531 46.308594 48.730469 L 46.308594 41.011719 C 46.308594 40.722656 46.15625 40.453125 45.90625 40.320312 L 39.226562 36.460938 C 39.089844 36.382812 38.957031 36.34375 38.824219 36.34375 C 38.6875 36.34375 38.554688 36.382812 38.417969 36.460938 "/>
</clipPath>
<linearGradient id="linear0" gradientUnits="userSpaceOnUse" x1="0.3773" y1="-0.0470335" x2="0.9962" y2="-0.0470335" gradientTransform="matrix(-15.583104,31.789421,-31.789421,-15.583104,48.03095,22.315123)">
<stop offset="0" style="stop-color:rgb(24.313725%,52.54902%,23.921569%);stop-opacity:1;"/>
<stop offset="0.3" style="stop-color:rgb(24.313725%,52.54902%,23.921569%);stop-opacity:1;"/>
<stop offset="0.5" style="stop-color:rgb(33.333333%,57.647059%,30.980392%);stop-opacity:1;"/>
<stop offset="0.8" style="stop-color:rgb(35.294118%,67.843137%,27.058824%);stop-opacity:1;"/>
<stop offset="1" style="stop-color:rgb(35.294118%,67.843137%,27.058824%);stop-opacity:1;"/>
</linearGradient>
<clipPath id="clip3">
  <path d="M 31 36 L 47 36 L 47 54 L 31 54 Z M 31 36 "/>
</clipPath>
<clipPath id="clip4">
  <path d="M 31.507812 49.210938 C 31.566406 49.285156 31.640625 49.363281 31.738281 49.421875 L 37.460938 52.722656 L 38.417969 53.28125 C 38.554688 53.355469 38.726562 53.394531 38.878906 53.375 C 38.9375 53.375 38.996094 53.355469 39.035156 53.335938 L 46.078125 40.453125 C 46.023438 40.398438 45.964844 40.339844 45.886719 40.300781 L 41.511719 37.785156 L 39.207031 36.460938 C 39.148438 36.421875 39.070312 36.402344 38.996094 36.382812 Z M 31.507812 49.210938 "/>
</clipPath>
<linearGradient id="linear1" gradientUnits="userSpaceOnUse" x1="0.050268" y1="0.1331" x2="0.6691" y2="0.1331" gradientTransform="matrix(28.379328,-20.968954,20.968954,28.379328,25.801286,48.644486)">
<stop offset="0" style="stop-color:rgb(24.313725%,52.54902%,23.921569%);stop-opacity:1;"/>
<stop offset="0.57" style="stop-color:rgb(24.313725%,52.54902%,23.921569%);stop-opacity:1;"/>
<stop offset="0.72" style="stop-color:rgb(38.039216%,59.607843%,34.117647%);stop-opacity:1;"/>
<stop offset="1" style="stop-color:rgb(46.27451%,67.45098%,39.215686%);stop-opacity:1;"/>
</linearGradient>
<clipPath id="clip5">
  <path d="M 31 36 L 47 36 L 47 54 L 31 54 Z M 31 36 "/>
</clipPath>
<clipPath id="clip6">
  <path d="M 38.746094 36.34375 C 38.628906 36.363281 38.515625 36.382812 38.417969 36.441406 L 31.757812 40.28125 L 38.9375 53.355469 C 39.035156 53.335938 39.128906 53.320312 39.226562 53.261719 L 45.90625 49.402344 C 46.117188 49.285156 46.253906 49.074219 46.292969 48.84375 L 38.976562 36.363281 C 38.917969 36.34375 38.859375 36.34375 38.824219 36.34375 C 38.785156 36.34375 38.765625 36.34375 38.746094 36.34375 "/>
</clipPath>
<linearGradient id="linear2" gradientUnits="userSpaceOnUse" x1="0.1301" y1="0.2836" x2="0.7489" y2="0.2836" gradientTransform="matrix(23.47081,0,0,23.47081,28.712909,38.200877)">
<stop offset="0" style="stop-color:rgb(41.960784%,74.901961%,27.843137%);stop-opacity:1;"/>
<stop offset="0.16" style="stop-color:rgb(41.960784%,74.901961%,27.843137%);stop-opacity:1;"/>
<stop offset="0.38" style="stop-color:rgb(47.45098%,70.588235%,38.039216%);stop-opacity:1;"/>
<stop offset="0.47" style="stop-color:rgb(45.882353%,67.45098%,39.215686%);stop-opacity:1;"/>
<stop offset="0.7" style="stop-color:rgb(39.607843%,61.960784%,35.294118%);stop-opacity:1;"/>
<stop offset="0.9" style="stop-color:rgb(24.313725%,52.54902%,23.921569%);stop-opacity:1;"/>
<stop offset="1" style="stop-color:rgb(24.313725%,52.54902%,23.921569%);stop-opacity:1;"/>
</linearGradient>
</defs>
<g id="surface1">
<path style=" stroke:none;fill-rule:nonzero;fill:rgb(40.784314%,62.352941%,38.823529%);fill-opacity:1;" d="M 47.597656 69.464844 C 47.367188 69.464844 47.136719 69.40625 46.925781 69.292969 L 44.8125 68.042969 C 44.503906 67.871094 44.660156 67.8125 44.753906 67.777344 C 45.175781 67.621094 45.253906 67.601562 45.714844 67.335938 C 45.753906 67.316406 45.832031 67.316406 45.867188 67.355469 L 47.5 68.3125 C 47.558594 68.351562 47.636719 68.351562 47.691406 68.3125 L 54.027344 64.664062 C 54.085938 64.628906 54.125 64.570312 54.125 64.492188 L 54.125 57.195312 C 54.125 57.121094 54.085938 57.0625 54.027344 57.023438 L 47.710938 53.375 C 47.65625 53.335938 47.578125 53.335938 47.519531 53.375 L 41.203125 57.023438 C 41.144531 57.0625 41.105469 57.121094 41.105469 57.195312 L 41.105469 64.492188 C 41.105469 64.570312 41.144531 64.628906 41.203125 64.664062 L 42.929688 65.664062 C 43.871094 66.144531 44.449219 65.585938 44.449219 65.03125 L 44.449219 57.792969 C 44.449219 57.695312 44.523438 57.621094 44.640625 57.621094 L 45.445312 57.621094 C 45.542969 57.621094 45.621094 57.695312 45.621094 57.792969 L 45.621094 65.011719 C 45.621094 66.257812 44.929688 66.988281 43.738281 66.988281 C 43.371094 66.988281 43.085938 66.988281 42.277344 66.585938 L 40.628906 65.625 C 40.222656 65.394531 39.957031 64.953125 39.957031 64.472656 L 39.957031 57.175781 C 39.957031 56.699219 40.203125 56.257812 40.628906 56.027344 L 46.964844 52.378906 C 47.367188 52.148438 47.902344 52.148438 48.289062 52.378906 L 54.625 56.027344 C 55.027344 56.257812 55.296875 56.699219 55.296875 57.175781 L 55.296875 64.472656 C 55.296875 64.953125 55.046875 65.394531 54.625 65.625 L 48.289062 69.273438 C 48.058594 69.390625 47.828125 69.464844 47.597656 69.464844 "/>
<path style=" stroke:none;fill-rule:nonzero;fill:rgb(40.784314%,62.352941%,38.823529%);fill-opacity:1;" d="M 49.554688 64.433594 C 46.789062 64.433594 46.214844 63.167969 46.214844 62.09375 C 46.214844 61.996094 46.292969 61.921875 46.40625 61.921875 L 47.230469 61.921875 C 47.328125 61.921875 47.40625 61.976562 47.40625 62.074219 C 47.519531 62.898438 47.902344 63.320312 49.574219 63.320312 C 50.898438 63.320312 51.476562 63.015625 51.476562 62.304688 C 51.476562 61.902344 51.320312 61.59375 49.246094 61.382812 C 47.519531 61.210938 46.445312 60.824219 46.445312 59.441406 C 46.445312 58.15625 47.519531 57.40625 49.324219 57.40625 C 51.359375 57.40625 52.359375 58.117188 52.472656 59.617188 C 52.472656 59.671875 52.453125 59.710938 52.414062 59.75 C 52.378906 59.789062 52.339844 59.808594 52.28125 59.808594 L 51.457031 59.808594 C 51.378906 59.808594 51.300781 59.75 51.28125 59.671875 C 51.089844 58.789062 50.609375 58.523438 49.304688 58.523438 C 47.847656 58.523438 47.671875 59.019531 47.671875 59.40625 C 47.671875 59.867188 47.867188 60 49.84375 60.269531 C 51.78125 60.519531 52.703125 60.882812 52.703125 62.265625 C 52.703125 63.648438 51.550781 64.433594 49.554688 64.433594 M 57.253906 56.699219 L 57.464844 56.699219 C 57.636719 56.699219 57.675781 56.582031 57.675781 56.503906 C 57.675781 56.3125 57.542969 56.3125 57.484375 56.3125 L 57.273438 56.3125 Z M 56.984375 56.082031 L 57.464844 56.082031 C 57.621094 56.082031 57.945312 56.082031 57.945312 56.449219 C 57.945312 56.699219 57.792969 56.753906 57.695312 56.773438 C 57.886719 56.792969 57.886719 56.910156 57.925781 57.082031 C 57.945312 57.195312 57.964844 57.390625 58.003906 57.445312 L 57.714844 57.445312 C 57.714844 57.390625 57.65625 57.042969 57.65625 57.023438 C 57.636719 56.945312 57.621094 56.910156 57.523438 56.910156 L 57.292969 56.910156 L 57.292969 57.464844 L 57.023438 57.464844 L 57.023438 56.082031 Z M 56.429688 56.773438 C 56.429688 57.351562 56.890625 57.792969 57.445312 57.792969 C 58.023438 57.792969 58.464844 57.332031 58.464844 56.773438 C 58.464844 56.199219 58.003906 55.757812 57.445312 55.757812 C 56.890625 55.757812 56.429688 56.199219 56.429688 56.773438 M 58.675781 56.773438 C 58.675781 57.445312 58.117188 58.003906 57.445312 58.003906 C 56.773438 58.003906 56.21875 57.464844 56.21875 56.773438 C 56.21875 56.082031 56.792969 55.546875 57.445312 55.546875 C 58.097656 55.566406 58.675781 56.082031 58.675781 56.773438 "/>
<path style=" stroke:none;fill-rule:nonzero;fill:rgb(25.098039%,25.490196%,21.568627%);fill-opacity:1;" d="M 27.992188 40.875 C 27.992188 40.589844 27.839844 40.320312 27.589844 40.167969 L 20.890625 36.308594 C 20.773438 36.25 20.640625 36.210938 20.523438 36.191406 L 20.449219 36.191406 C 20.3125 36.191406 20.199219 36.230469 20.082031 36.308594 L 13.382812 40.167969 C 13.132812 40.320312 12.980469 40.589844 12.980469 40.875 L 13 51.28125 C 13 51.4375 13.074219 51.570312 13.191406 51.628906 C 13.304688 51.707031 13.476562 51.707031 13.59375 51.628906 L 17.566406 49.34375 C 17.816406 49.191406 17.972656 48.921875 17.972656 48.632812 L 17.972656 43.777344 C 17.972656 43.488281 18.125 43.21875 18.375 43.066406 L 20.0625 42.085938 C 20.199219 42.007812 20.332031 41.972656 20.46875 41.972656 C 20.601562 41.972656 20.753906 42.007812 20.871094 42.085938 L 22.558594 43.066406 C 22.808594 43.21875 22.964844 43.46875 22.964844 43.777344 L 22.964844 48.632812 C 22.964844 48.921875 23.117188 49.191406 23.367188 49.34375 L 27.359375 51.628906 C 27.496094 51.707031 27.648438 51.707031 27.761719 51.628906 C 27.878906 51.550781 27.957031 51.417969 27.957031 51.28125 Z M 59.65625 46.292969 C 59.65625 46.367188 59.617188 46.425781 59.558594 46.464844 L 57.253906 47.789062 C 57.195312 47.828125 57.121094 47.828125 57.042969 47.789062 L 54.738281 46.464844 C 54.679688 46.425781 54.644531 46.367188 54.644531 46.292969 L 54.644531 43.621094 C 54.644531 43.546875 54.679688 43.488281 54.738281 43.449219 L 57.042969 42.125 C 57.101562 42.085938 57.175781 42.085938 57.253906 42.125 L 59.558594 43.449219 C 59.617188 43.488281 59.65625 43.546875 59.65625 43.621094 Z M 60.289062 26.59375 C 60.152344 26.515625 60 26.515625 59.886719 26.59375 C 59.769531 26.667969 59.691406 26.804688 59.691406 26.9375 L 59.691406 37.246094 C 59.691406 37.34375 59.636719 37.441406 59.558594 37.496094 C 59.460938 37.554688 59.367188 37.554688 59.269531 37.496094 L 57.582031 36.539062 C 57.332031 36.382812 57.023438 36.382812 56.773438 36.539062 L 50.054688 40.414062 C 49.804688 40.570312 49.652344 40.820312 49.652344 41.105469 L 49.652344 48.863281 C 49.652344 49.152344 49.804688 49.421875 50.054688 49.574219 L 56.773438 53.453125 C 57.023438 53.605469 57.332031 53.605469 57.582031 53.453125 L 64.300781 49.574219 C 64.550781 49.421875 64.703125 49.171875 64.703125 48.863281 L 64.703125 29.53125 C 64.703125 29.242188 64.550781 28.972656 64.28125 28.820312 Z M 82.636719 43.566406 C 82.886719 43.410156 83.039062 43.160156 83.039062 42.875 L 83.039062 40.992188 C 83.039062 40.703125 82.886719 40.433594 82.636719 40.28125 L 75.972656 36.402344 C 75.726562 36.25 75.417969 36.25 75.167969 36.402344 L 68.449219 40.28125 C 68.199219 40.433594 68.042969 40.683594 68.042969 40.992188 L 68.042969 48.730469 C 68.042969 49.019531 68.199219 49.285156 68.449219 49.441406 L 75.109375 53.242188 C 75.359375 53.375 75.648438 53.375 75.898438 53.242188 L 79.929688 50.996094 C 80.0625 50.917969 80.140625 50.785156 80.140625 50.648438 C 80.140625 50.496094 80.0625 50.363281 79.929688 50.304688 L 73.171875 46.425781 C 73.035156 46.347656 72.960938 46.214844 72.960938 46.078125 L 72.960938 43.640625 C 72.960938 43.488281 73.035156 43.355469 73.171875 43.296875 L 75.265625 42.085938 C 75.398438 42.007812 75.550781 42.007812 75.667969 42.085938 L 77.761719 43.296875 C 77.894531 43.371094 77.972656 43.507812 77.972656 43.640625 L 77.972656 45.5625 C 77.972656 45.714844 78.046875 45.847656 78.183594 45.90625 C 78.316406 45.984375 78.46875 45.984375 78.585938 45.90625 Z M 82.636719 43.566406 "/>
<path style=" stroke:none;fill-rule:nonzero;fill:rgb(40.784314%,62.352941%,38.823529%);fill-opacity:1;" d="M 75.457031 43.199219 C 75.496094 43.179688 75.570312 43.179688 75.609375 43.199219 L 76.894531 43.949219 C 76.953125 43.96875 76.972656 44.027344 76.972656 44.082031 L 76.972656 45.5625 C 76.972656 45.621094 76.933594 45.675781 76.894531 45.695312 L 75.609375 46.445312 C 75.550781 46.464844 75.496094 46.464844 75.457031 46.445312 L 74.167969 45.695312 C 74.113281 45.675781 74.09375 45.621094 74.09375 45.5625 L 74.09375 44.082031 C 74.09375 44.027344 74.113281 43.96875 74.167969 43.949219 Z M 75.457031 43.199219 "/>
<g clip-path="url(#clip1)" clip-rule="nonzero">
<g clip-path="url(#clip2)" clip-rule="nonzero">
<path style=" stroke:none;fill-rule:nonzero;fill:url(#linear0);" d="M 53.050781 39.648438 L 34.234375 30.433594 L 24.59375 50.113281 L 43.410156 59.328125 Z M 53.050781 39.648438 "/>
</g>
</g>
<g clip-path="url(#clip3)" clip-rule="nonzero">
<g clip-path="url(#clip4)" clip-rule="nonzero">
<path style=" stroke:none;fill-rule:nonzero;fill:url(#linear1);" d="M 23.386719 42.375 L 36.652344 60.34375 L 54.222656 47.386719 L 40.933594 29.394531 Z M 23.386719 42.375 "/>
</g>
</g>
<g clip-path="url(#clip5)" clip-rule="nonzero">
<g clip-path="url(#clip6)" clip-rule="nonzero">
<path style=" stroke:none;fill-rule:nonzero;fill:url(#linear2);" d="M 31.777344 36.34375 L 46.292969 36.34375 L 46.292969 53.355469 L 31.777344 53.355469 Z M 31.777344 36.34375 "/>
</g>
</g>
</g>
</svg>
