<?xml version="1.0" encoding="UTF-8"?>
<svg xmlns="http://www.w3.org/2000/svg" xmlns:xlink="http://www.w3.org/1999/xlink" width="96px" height="96px" viewBox="0 0 96 96" version="1.1">
<g id="surface1">
<path style=" stroke:none;fill-rule:evenodd;fill:rgb(100%,100%,100%);fill-opacity:1;" d="M 23.105469 22.199219 C 25.570312 24.199219 26.492188 24.046875 31.121094 23.738281 L 74.746094 21.117188 C 75.671875 21.117188 74.902344 20.195312 74.59375 20.042969 L 67.351562 14.804688 C 65.960938 13.726562 64.113281 12.492188 60.566406 12.800781 L 18.328125 15.878906 C 16.789062 16.03125 16.480469 16.800781 17.09375 17.421875 Z M 23.105469 22.199219 "/>
<path style=" stroke:none;fill-rule:evenodd;fill:rgb(100%,100%,100%);fill-opacity:1;" d="M 25.722656 32.363281 L 25.722656 78.265625 C 25.722656 80.730469 26.957031 81.652344 29.730469 81.503906 L 77.675781 78.726562 C 80.449219 78.574219 80.761719 76.878906 80.761719 74.875 L 80.761719 29.28125 C 80.761719 27.28125 79.988281 26.203125 78.292969 26.355469 L 28.191406 29.28125 C 26.34375 29.4375 25.722656 30.363281 25.722656 32.363281 Z M 25.722656 32.363281 "/>
<path style=" stroke:none;fill-rule:evenodd;fill:rgb(25.882353%,25.882353%,25.882353%);fill-opacity:1;" d="M 23.105469 22.199219 C 25.570312 24.199219 26.492188 24.046875 31.121094 23.738281 L 74.746094 21.117188 C 75.671875 21.117188 74.902344 20.195312 74.59375 20.042969 L 67.351562 14.804688 C 65.960938 13.726562 64.113281 12.492188 60.566406 12.800781 L 18.328125 15.878906 C 16.789062 16.03125 16.480469 16.800781 17.09375 17.421875 Z M 25.722656 32.363281 L 25.722656 78.265625 C 25.722656 80.730469 26.957031 81.652344 29.730469 81.503906 L 77.675781 78.726562 C 80.449219 78.574219 80.761719 76.878906 80.761719 74.875 L 80.761719 29.28125 C 80.761719 27.28125 79.988281 26.203125 78.292969 26.355469 L 28.191406 29.28125 C 26.34375 29.4375 25.722656 30.363281 25.722656 32.363281 Z M 73.050781 34.824219 C 73.359375 36.214844 73.050781 37.601562 71.660156 37.757812 L 69.351562 38.214844 L 69.351562 72.101562 C 67.347656 73.179688 65.496094 73.796875 63.957031 73.796875 C 61.488281 73.796875 60.871094 73.027344 59.023438 70.714844 L 43.910156 46.996094 L 43.910156 69.945312 L 48.695312 71.023438 C 48.695312 71.023438 48.695312 73.796875 44.835938 73.796875 L 34.203125 74.410156 C 33.894531 73.796875 34.203125 72.257812 35.28125 71.949219 L 38.054688 71.179688 L 38.054688 40.835938 L 34.203125 40.527344 C 33.890625 39.140625 34.660156 37.140625 36.820312 36.984375 L 48.230469 36.214844 L 63.953125 60.242188 L 63.953125 38.984375 L 59.945312 38.527344 C 59.636719 36.828125 60.867188 35.597656 62.410156 35.445312 Z M 14.777344 11.722656 L 58.714844 8.488281 C 64.109375 8.027344 65.496094 8.335938 68.886719 10.796875 L 82.914062 20.65625 C 85.226562 22.351562 86 22.8125 86 24.660156 L 86 78.722656 C 86 82.113281 84.765625 84.117188 80.449219 84.421875 L 29.425781 87.503906 C 26.1875 87.65625 24.644531 87.195312 22.949219 85.039062 L 12.621094 71.640625 C 10.769531 69.175781 10 67.328125 10 65.171875 L 10 17.113281 C 10 14.34375 11.234375 12.03125 14.777344 11.722656 Z M 14.777344 11.722656 "/>
</g>
</svg>
