<?xml version="1.0" encoding="UTF-8"?>
<svg xmlns="http://www.w3.org/2000/svg" xmlns:xlink="http://www.w3.org/1999/xlink" width="96px" height="96px" viewBox="0 0 96 96" version="1.1">
<defs>
<linearGradient id="linear0" gradientUnits="userSpaceOnUse" x1="32" y1="25.213" x2="32" y2="36.722" gradientTransform="matrix(1.5,0,0,1.5,0,0)">
<stop offset="0" style="stop-color:rgb(42.745098%,78.039216%,100%);stop-opacity:1;"/>
<stop offset="1" style="stop-color:rgb(90.196078%,67.058824%,100%);stop-opacity:1;"/>
</linearGradient>
<linearGradient id="linear1" gradientUnits="userSpaceOnUse" x1="32" y1="7.426" x2="32" y2="53.44" gradientTransform="matrix(1.5,0,0,1.5,0,0)">
<stop offset="0" style="stop-color:rgb(10.196078%,42.745098%,100%);stop-opacity:1;"/>
<stop offset="1" style="stop-color:rgb(78.431373%,13.333333%,100%);stop-opacity:1;"/>
</linearGradient>
</defs>
<g id="surface1">
<path style=" stroke:none;fill-rule:nonzero;fill:url(#linear0);" d="M 57 48 C 57 52.96875 52.96875 57 48 57 C 43.03125 57 39 52.96875 39 48 C 39 43.03125 43.03125 39 48 39 C 52.96875 39 57 43.03125 57 48 Z M 57 48 "/>
<path style=" stroke:none;fill-rule:nonzero;fill:url(#linear1);" d="M 87 48 C 87 42.363281 80.636719 37.472656 70.71875 34.511719 C 71.050781 32.964844 71.332031 31.445312 71.507812 29.988281 C 72.492188 21.765625 70.78125 16.003906 66.691406 13.769531 C 62.597656 11.535156 56.828125 13.210938 50.445312 18.488281 C 49.628906 19.164062 48.8125 19.894531 48 20.664062 C 47.1875 19.894531 46.371094 19.164062 45.554688 18.488281 C 39.171875 13.210938 33.402344 11.539062 29.308594 13.769531 C 25.21875 16.003906 23.507812 21.761719 24.492188 29.988281 C 24.667969 31.445312 24.949219 32.964844 25.28125 34.511719 C 15.363281 37.472656 9 42.363281 9 48 C 9 53.636719 15.363281 58.527344 25.28125 61.488281 C 24.949219 63.035156 24.667969 64.554688 24.492188 66.011719 C 23.507812 74.234375 25.21875 79.996094 29.308594 82.230469 C 30.492188 82.875 31.816406 83.195312 33.253906 83.195312 C 36.789062 83.195312 41.015625 81.265625 45.554688 77.511719 C 46.371094 76.839844 47.1875 76.105469 48 75.335938 C 48.8125 76.105469 49.628906 76.839844 50.445312 77.511719 C 54.984375 81.265625 59.210938 83.195312 62.746094 83.195312 C 64.183594 83.195312 65.507812 82.875 66.691406 82.230469 C 70.78125 79.996094 72.492188 74.238281 71.507812 66.011719 C 71.332031 64.554688 71.050781 63.035156 70.71875 61.488281 C 80.636719 58.527344 87 53.636719 87 48 Z M 52.351562 20.800781 C 57.648438 16.421875 62.351562 14.820312 65.25 16.402344 C 68.152344 17.984375 69.34375 22.808594 68.527344 29.628906 C 68.371094 30.949219 68.117188 32.324219 67.824219 33.722656 C 64.648438 32.945312 61.179688 32.351562 57.484375 31.972656 C 55.140625 28.5625 52.664062 25.449219 50.125 22.777344 C 50.863281 22.078125 51.609375 21.414062 52.351562 20.800781 Z M 59.847656 54.46875 C 58.570312 56.8125 57.207031 59.050781 55.796875 61.179688 C 53.320312 61.386719 50.714844 61.5 48 61.5 C 45.285156 61.5 42.679688 61.386719 40.203125 61.179688 C 38.792969 59.050781 37.429688 56.8125 36.148438 54.46875 C 34.972656 52.316406 33.902344 50.152344 32.9375 48 C 33.902344 45.847656 34.972656 43.683594 36.148438 41.53125 C 37.429688 39.1875 38.789062 36.949219 40.203125 34.820312 C 42.679688 34.613281 45.285156 34.5 48 34.5 C 50.714844 34.5 53.320312 34.613281 55.796875 34.820312 C 57.207031 36.949219 58.570312 39.1875 59.851562 41.53125 C 61.027344 43.683594 62.097656 45.847656 63.0625 48 C 62.097656 50.152344 61.023438 52.316406 59.847656 54.46875 Z M 64.617188 51.730469 C 65.636719 54.339844 66.472656 56.898438 67.132812 59.375 C 64.816406 59.9375 62.316406 60.414062 59.617188 60.769531 C 60.601562 59.191406 61.566406 57.582031 62.480469 55.90625 C 63.242188 54.519531 63.945312 53.125 64.617188 51.730469 Z M 48 71.105469 C 46.09375 69.09375 44.21875 66.808594 42.40625 64.335938 C 44.230469 64.441406 46.09375 64.5 48 64.5 C 49.90625 64.5 51.769531 64.441406 53.59375 64.335938 C 51.78125 66.808594 49.90625 69.09375 48 71.105469 Z M 36.382812 60.769531 C 33.683594 60.414062 31.183594 59.9375 28.867188 59.375 C 29.523438 56.898438 30.363281 54.335938 31.382812 51.730469 C 32.054688 53.125 32.757812 54.519531 33.515625 55.90625 C 34.429688 57.582031 35.394531 59.191406 36.382812 60.769531 Z M 31.382812 44.269531 C 30.363281 41.660156 29.527344 39.101562 28.867188 36.625 C 31.183594 36.0625 33.683594 35.585938 36.382812 35.230469 C 35.398438 36.808594 34.433594 38.417969 33.519531 40.09375 C 32.757812 41.480469 32.054688 42.875 31.382812 44.269531 Z M 48 24.894531 C 49.90625 26.90625 51.78125 29.191406 53.59375 31.664062 C 51.769531 31.558594 49.90625 31.5 48 31.5 C 46.09375 31.5 44.230469 31.558594 42.40625 31.664062 C 44.21875 29.191406 46.09375 26.90625 48 24.894531 Z M 62.484375 40.09375 C 61.570312 38.417969 60.605469 36.808594 59.617188 35.230469 C 62.316406 35.585938 64.816406 36.0625 67.132812 36.625 C 66.476562 39.101562 65.636719 41.664062 64.617188 44.269531 C 63.945312 42.875 63.242188 41.480469 62.484375 40.09375 Z M 27.472656 29.632812 C 26.652344 22.808594 27.847656 17.984375 30.75 16.402344 C 31.480469 16.003906 32.328125 15.808594 33.269531 15.808594 C 36.058594 15.808594 39.6875 17.527344 43.648438 20.800781 C 44.390625 21.414062 45.136719 22.078125 45.878906 22.777344 C 43.339844 25.449219 40.863281 28.5625 38.515625 31.976562 C 34.824219 32.351562 31.351562 32.949219 28.179688 33.726562 C 27.882812 32.324219 27.632812 30.949219 27.472656 29.632812 Z M 12 48 C 12 44.101562 17.203125 40.046875 25.976562 37.410156 C 26.882812 40.828125 28.132812 44.390625 29.683594 48 C 28.132812 51.609375 26.882812 55.171875 25.976562 58.589844 C 17.203125 55.953125 12 51.898438 12 48 Z M 43.648438 75.199219 C 38.351562 79.578125 33.652344 81.183594 30.75 79.597656 C 27.847656 78.015625 26.65625 73.191406 27.472656 66.371094 C 27.628906 65.050781 27.882812 63.675781 28.175781 62.277344 C 31.351562 63.054688 34.820312 63.648438 38.515625 64.027344 C 40.859375 67.4375 43.335938 70.550781 45.875 73.222656 C 45.136719 73.921875 44.390625 74.585938 43.648438 75.199219 Z M 68.527344 66.367188 C 69.347656 73.191406 68.152344 78.015625 65.25 79.597656 C 62.351562 81.183594 57.648438 79.574219 52.351562 75.199219 C 51.609375 74.585938 50.863281 73.921875 50.121094 73.222656 C 52.660156 70.550781 55.136719 67.4375 57.484375 64.023438 C 61.175781 63.648438 64.648438 63.050781 67.820312 62.273438 C 68.117188 63.675781 68.367188 65.050781 68.527344 66.367188 Z M 70.023438 58.589844 C 69.117188 55.171875 67.867188 51.609375 66.316406 48 C 67.867188 44.390625 69.117188 40.828125 70.023438 37.410156 C 78.796875 40.046875 84 44.101562 84 48 C 84 51.898438 78.796875 55.953125 70.023438 58.589844 Z M 70.023438 58.589844 "/>
</g>
</svg>
