<?xml version="1.0" encoding="UTF-8"?>
<svg xmlns="http://www.w3.org/2000/svg" xmlns:xlink="http://www.w3.org/1999/xlink" width="96px" height="96px" viewBox="0 0 96 96" version="1.1">
<g id="surface1">
<path style=" stroke:none;fill-rule:nonzero;fill:rgb(100%,100%,100%);fill-opacity:1;" d="M 14.398438 0 L 81.601562 0 C 89.554688 0 96 6.445312 96 14.398438 L 96 81.601562 C 96 89.554688 89.554688 96 81.601562 96 L 14.398438 96 C 6.445312 96 0 89.554688 0 81.601562 L 0 14.398438 C 0 6.445312 6.445312 0 14.398438 0 Z M 14.398438 0 "/>
<path style=" stroke:none;fill-rule:nonzero;fill:rgb(87.843137%,11.764706%,35.294118%);fill-opacity:1;" d="M 27.9375 57.1875 C 12.144531 57.1875 -0.65625 44.386719 -0.65625 28.59375 C -0.65625 12.800781 12.144531 0 27.9375 0 C 27.9375 -4.125 31.125 -7.3125 35.25 -7.3125 L 42.5625 -7.3125 Z M 31.5 57.1875 C 47.292969 46.46875 51.40625 24.980469 40.6875 9.1875 C 29.96875 -6.605469 8.480469 -10.71875 -7.3125 0 L -7.3125 18.1875 C -12.335938 18.1875 -16.40625 14.117188 -16.40625 9.09375 C -16.40625 4.070312 -12.335938 0 -7.3125 0 Z M 31.5 57.1875 "/>
<path style=" stroke:none;fill-rule:nonzero;fill:rgb(21.176471%,77.254902%,94.117647%);fill-opacity:1;" d="M 38.8125 27.9375 C 38.8125 12.144531 51.613281 -0.65625 67.40625 -0.65625 C 83.199219 -0.65625 96 12.144531 96 27.9375 C 100.125 27.9375 103.3125 31.125 103.3125 35.25 L 103.3125 42.5625 Z M 38.8125 31.5 C 49.53125 47.292969 71.019531 51.40625 86.8125 40.6875 C 102.605469 29.96875 106.71875 8.480469 96 -7.3125 L 77.8125 -7.3125 C 77.8125 -12.335938 81.882812 -16.40625 86.90625 -16.40625 C 91.929688 -16.40625 96 -12.335938 96 -7.3125 Z M 38.8125 31.5 "/>
<path style=" stroke:none;fill-rule:nonzero;fill:rgb(18.039216%,71.372549%,49.019608%);fill-opacity:1;" d="M 68.0625 38.8125 C 83.855469 38.8125 96.65625 51.613281 96.65625 67.40625 C 96.65625 83.199219 83.855469 96 68.0625 96 C 68.0625 100.125 64.875 103.3125 60.75 103.3125 L 53.4375 103.3125 Z M 64.5 38.8125 C 48.707031 49.53125 44.59375 71.019531 55.3125 86.8125 C 66.03125 102.605469 87.519531 106.71875 103.3125 96 L 103.3125 77.8125 C 108.335938 77.8125 112.40625 81.882812 112.40625 86.90625 C 112.40625 91.929688 108.335938 96 103.3125 96 Z M 64.5 38.8125 "/>
<path style=" stroke:none;fill-rule:nonzero;fill:rgb(92.54902%,69.803922%,18.039216%);fill-opacity:1;" d="M 57.1875 68.0625 C 57.1875 83.855469 44.386719 96.65625 28.59375 96.65625 C 12.800781 96.65625 0 83.855469 0 68.0625 C -4.125 68.0625 -7.3125 64.875 -7.3125 60.75 L -7.3125 53.4375 Z M 57.1875 64.5 C 46.46875 48.707031 24.980469 44.59375 9.1875 55.3125 C -6.605469 66.03125 -10.71875 87.519531 0 103.3125 L 18.1875 103.3125 C 18.1875 108.335938 14.117188 112.40625 9.09375 112.40625 C 4.070312 112.40625 0 108.335938 0 103.3125 Z M 57.1875 64.5 "/>
</g>
</svg>
