<?xml version="1.0" encoding="UTF-8"?>
<svg xmlns="http://www.w3.org/2000/svg" xmlns:xlink="http://www.w3.org/1999/xlink" width="96px" height="96px" viewBox="0 0 96 96" version="1.1">
<g id="surface1">
<path style=" stroke:none;fill-rule:nonzero;fill:rgb(87.843138%,11.764706%,35.294119%);fill-opacity:1;" d="M 20.5625 60.472656 C 20.5625 65.992188 16.101562 70.449219 10.582031 70.449219 C 5.066406 70.449219 0.605469 65.992188 0.605469 60.472656 C 0.605469 54.953125 5.066406 50.496094 10.582031 50.496094 L 20.5625 50.496094 Z M 25.550781 60.472656 C 25.550781 54.953125 30.007812 50.496094 35.527344 50.496094 C 41.046875 50.496094 45.503906 54.953125 45.503906 60.472656 L 45.503906 85.417969 C 45.503906 90.933594 41.046875 95.394531 35.527344 95.394531 C 30.007812 95.394531 25.550781 90.933594 25.550781 85.417969 Z M 25.550781 60.472656 "/>
<path style=" stroke:none;fill-rule:nonzero;fill:rgb(21.176471%,77.254903%,94.117647%);fill-opacity:1;" d="M 35.527344 20.410156 C 30.007812 20.410156 25.550781 15.949219 25.550781 10.429688 C 25.550781 4.914062 30.007812 0.453125 35.527344 0.453125 C 41.046875 0.453125 45.503906 4.914062 45.503906 10.429688 L 45.503906 20.410156 Z M 35.527344 25.472656 C 41.046875 25.472656 45.503906 29.933594 45.503906 35.453125 C 45.503906 40.96875 41.046875 45.429688 35.527344 45.429688 L 10.507812 45.429688 C 4.988281 45.429688 0.527344 40.96875 0.527344 35.453125 C 0.527344 29.933594 4.988281 25.472656 10.507812 25.472656 Z M 35.527344 25.472656 "/>
<path style=" stroke:none;fill-rule:nonzero;fill:rgb(18.039216%,71.372551%,49.019608%);fill-opacity:1;" d="M 75.515625 35.453125 C 75.515625 29.933594 79.976562 25.472656 85.492188 25.472656 C 91.011719 25.472656 95.472656 29.933594 95.472656 35.453125 C 95.472656 40.96875 91.011719 45.429688 85.492188 45.429688 L 75.515625 45.429688 Z M 70.527344 35.453125 C 70.527344 40.96875 66.066406 45.429688 60.546875 45.429688 C 55.03125 45.429688 50.570312 40.96875 50.570312 35.453125 L 50.570312 10.429688 C 50.570312 4.914062 55.03125 0.453125 60.546875 0.453125 C 66.066406 0.453125 70.527344 4.914062 70.527344 10.429688 Z M 70.527344 35.453125 "/>
<path style=" stroke:none;fill-rule:nonzero;fill:rgb(92.54902%,69.803923%,18.039216%);fill-opacity:1;" d="M 60.546875 75.4375 C 66.066406 75.4375 70.527344 79.898438 70.527344 85.417969 C 70.527344 90.933594 66.066406 95.394531 60.546875 95.394531 C 55.03125 95.394531 50.570312 90.933594 50.570312 85.417969 L 50.570312 75.4375 Z M 60.546875 70.449219 C 55.03125 70.449219 50.570312 65.992188 50.570312 60.472656 C 50.570312 54.953125 55.03125 50.496094 60.546875 50.496094 L 85.570312 50.496094 C 91.085938 50.496094 95.546875 54.953125 95.546875 60.472656 C 95.546875 65.992188 91.085938 70.449219 85.570312 70.449219 Z M 60.546875 70.449219 "/>
</g>
</svg>
