<?xml version="1.0" encoding="UTF-8"?>
<svg xmlns="http://www.w3.org/2000/svg" xmlns:xlink="http://www.w3.org/1999/xlink" width="96px" height="96px" viewBox="0 0 96 96" version="1.1">
<g id="surface1">
<path style=" stroke:none;fill-rule:nonzero;fill:rgb(54.509804%,76.470588%,29.019608%);fill-opacity:1;" d="M 87.964844 47.269531 C 88.101562 38.746094 86.183594 28.613281 82.183594 16.722656 L 79.046875 7.398438 L 74.785156 16.265625 C 74.558594 16.738281 74.296875 17.203125 74.027344 17.660156 C 67.027344 11.652344 57.949219 8 48 8 C 25.90625 8 8 25.90625 8 48 C 8 70.09375 25.90625 88 48 88 C 70.09375 88 88 70.09375 88 48 C 88 47.753906 87.96875 47.515625 87.964844 47.269531 Z M 87.964844 47.269531 "/>
<path style=" stroke:none;fill-rule:nonzero;fill:rgb(100%,100%,100%);fill-opacity:1;" d="M 78.769531 65.117188 C 72.523438 73.71875 61.46875 74.183594 51.0625 74 L 33.625 74 C 42.480469 70.8125 47.75 70.054688 53.132812 67.199219 C 63.269531 61.871094 73.289062 50.207031 75.375 38.074219 C 71.515625 49.746094 59.816406 59.777344 49.15625 63.855469 C 41.851562 66.640625 28.660156 69.34375 28.660156 69.34375 L 28.125 69.054688 C 19.144531 64.535156 18.875 44.429688 35.199219 37.9375 C 42.347656 35.089844 49.1875 36.652344 56.90625 34.75 C 65.152344 32.726562 74.6875 26.335938 78.566406 18 C 82.910156 31.335938 88.140625 52.210938 78.769531 65.117188 Z M 31.335938 76.890625 C 30.773438 77.589844 29.910156 78 29.011719 78 C 27.363281 78 26.019531 76.644531 26.019531 75 C 26.019531 73.355469 27.375 72 29.011719 72 C 29.691406 72 30.363281 72.234375 30.890625 72.671875 C 32.171875 73.710938 32.371094 75.609375 31.335938 76.890625 Z M 31.335938 76.890625 "/>
</g>
</svg>
